<?xml version="1.0" encoding="UTF-8" standalone="no"?><svg width="415" height="628" viewBox="0 0 415 628" xmlns="http://www.w3.org/2000/svg">
<defs>
<marker id="startarrow" markerWidth="10" markerHeight="7"
refX="0" refY="3.5" orient="auto">
<polygon points="10 0, 10 7, 0 3.5" fill="context-stroke" />
</marker>
<marker id="endarrow" markerWidth="10" markerHeight="7"
refX="10" refY="3.5" orient="auto">
<polygon points="0 0, 10 3.5, 0 7" fill="context-stroke" />
</marker>

</defs><style>
.a15 { font-size: 15px; font-family: Times, serif; }
</style>
<g >

            <ellipse cx="275" cy="565" rx="25" ry="25" fill="#ffffffff" 
            stroke-width="2" stroke="#000000ff"/>

            </g>
<g >

            <ellipse cx="275" cy="565" rx="29" ry="29" fill="#00000000" 
            stroke-width="2" stroke="#000000ff"/>

            </g>
<text dominant-baseline="middle" text-anchor="middle" 
            x="275" y="550" class="a15"><tspan x = "275" dy="1.0em">END</tspan></text><g >

            <rect x="360" y="140" width="50" height="50" fill="#ffffffff" 
            stroke-width="2" stroke="#000000ff" rx="0"  />

            </g>
<text dominant-baseline="middle" text-anchor="middle" 
            x="385" y="150" class="a15"><tspan x = "385" dy="1.0em">13</tspan></text><g >

            <rect x="250" y="140" width="50" height="50" fill="#ffffffff" 
            stroke-width="2" stroke="#000000ff" rx="0"  />

            </g>
<text dominant-baseline="middle" text-anchor="middle" 
            x="275" y="150" class="a15"><tspan x = "275" dy="1.0em">true</tspan></text><g >

            <ellipse cx="275" cy="455" rx="25" ry="25" fill="#ffffffff" 
            stroke-width="2" stroke="#000000ff"/>

            </g>
<text dominant-baseline="middle" text-anchor="middle" 
            x="275" y="440" class="a15"><tspan x = "275" dy="1.0em">.0</tspan></text><g >

            <rect x="30" y="30" width="50" height="50" fill="#ffffffff" 
            stroke-width="2" stroke="#000000ff" rx="0"  />

            </g>
<text dominant-baseline="middle" text-anchor="middle" 
            x="55" y="40" class="a15"><tspan x = "55" dy="1.0em">14</tspan></text><g >

            <rect x="140" y="30" width="50" height="50" fill="#ffffffff" 
            stroke-width="2" stroke="#000000ff" rx="0"  />

            </g>
<text dominant-baseline="middle" text-anchor="middle" 
            x="165" y="40" class="a15"><tspan x = "165" dy="1.0em">13</tspan></text><g >

            <ellipse cx="275" cy="310" rx="25" ry="25" fill="#ffffffff" 
            stroke-width="2" stroke="#000000ff"/>

            </g>
<text dominant-baseline="middle" text-anchor="middle" 
            x="275" y="295" class="a15"><tspan x = "275" dy="1.0em">tuple</tspan></text><g >

            <ellipse cx="165" cy="165" rx="25" ry="25" fill="#ffffffff" 
            stroke-width="2" stroke="#000000ff"/>

            </g>
<text dominant-baseline="middle" text-anchor="middle" 
            x="165" y="150" class="a15"><tspan x = "165" dy="1.0em">+</tspan></text><text dominant-baseline="middle" text-anchor="middle" 
            x="275" y="367.5" class="a15"><tspan x = "275" dy="1.0em">0</tspan></text><text dominant-baseline="middle" text-anchor="middle" 
            x="220" y="222.5" class="a15"><tspan x = "220" dy="1.0em">0</tspan></text><text dominant-baseline="middle" text-anchor="middle" 
            x="275" y="222.5" class="a15"><tspan x = "275" dy="1.0em">1</tspan></text><text dominant-baseline="middle" text-anchor="middle" 
            x="330" y="222.5" class="a15"><tspan x = "330" dy="1.0em">2</tspan></text><g >

            <path id="arrow0" d="M 275 480 C 275 510, 275 510, 275 540 " stroke="#000000ff" stroke-width="2"   marker-end="url(#endarrow)" 
            fill="transparent" />

            </g>
<text><textPath href="#arrow0" startOffset="50%" text-anchor="middle" class="a15"></textPath></text><g >

            <path id="arrow1" d="M 275 335 C 275 365, 275 365, 275 395 S 275 400, 275 430 " stroke="#000000ff" stroke-width="2"   marker-end="url(#endarrow)" 
            fill="transparent" />

            </g>
<text><textPath href="#arrow1" startOffset="50%" text-anchor="middle" class="a15"></textPath></text><g >

            <path id="arrow2" d="M 178.58128195393186 185.98925392880378 C 194.87882029865008 211.1763586433683, 201.7803031415225 226.29892865285154, 220 250 S 237.83514543154595 269.4565222889592, 258.10688428706635 291.57114649498146 " stroke="#000000ff" stroke-width="2"   marker-end="url(#endarrow)" 
            fill="transparent" />

            </g>
<text><textPath href="#arrow2" startOffset="50%" text-anchor="middle" class="a15"></textPath></text><g >

            <path id="arrow3" d="M 275 190 C 275 220, 275 220, 275 250 S 275 255, 275 285 " stroke="#000000ff" stroke-width="2"   marker-end="url(#endarrow)" 
            fill="transparent" />

            </g>
<text><textPath href="#arrow3" startOffset="50%" text-anchor="middle" class="a15"></textPath></text><g >

            <path id="arrow4" d="M 360 190 C 346.58359213500125 216.8328157299975, 346.5136703339133 225.29887966860025, 330 250 S 312.164854568454 269.4565222889592, 291.89311571293365 291.57114649498146 " stroke="#000000ff" stroke-width="2"   marker-end="url(#endarrow)" 
            fill="transparent" />

            </g>
<text><textPath href="#arrow4" startOffset="50%" text-anchor="middle" class="a15"></textPath></text><g >

            <path id="arrow5" d="M 165 80 C 165 110, 165 110, 165 140 " stroke="#000000ff" stroke-width="2"   marker-end="url(#endarrow)" 
            fill="transparent" />

            </g>
<text><textPath href="#arrow5" startOffset="50%" text-anchor="middle" class="a15"></textPath></text><g >

            <path id="arrow6" d="M 80 69.1025641025641 C 99.89922542947555 91.55297227940832, 128.51808671262813 123.84091834245227, 148.4173121421037 146.2913265192965 " stroke="#000000ff" stroke-width="2"   marker-end="url(#endarrow)" 
            fill="transparent" />

            </g>
<text><textPath href="#arrow6" startOffset="50%" text-anchor="middle" class="a15"></textPath></text></svg>