<?xml version="1.0" encoding="UTF-8" standalone="no"?><svg width="1139" height="875" viewBox="0 0 1139 875" xmlns="http://www.w3.org/2000/svg">
<defs>
<marker id="startarrow" markerWidth="10" markerHeight="7"
refX="0" refY="3.5" orient="auto">
<polygon points="10 0, 10 7, 0 3.5" fill="context-stroke" />
</marker>
<marker id="endarrow" markerWidth="10" markerHeight="7"
refX="10" refY="3.5" orient="auto">
<polygon points="0 0, 10 3.5, 0 7" fill="context-stroke" />
</marker>

</defs><style>
.a15 { font-size: 15px; font-family: Times, serif; }
</style>
<g >

            <rect x="822.5" y="175" width="50" height="50" fill="#ff8ca1ff" 
            stroke-width="2" stroke="#f45f74ff" rx="0"  />

            </g>
<text dominant-baseline="middle" text-anchor="middle" 
            x="847.5" y="185" class="a15"><tspan x = "847.5" dy="1.0em">input</tspan></text><g >

            <rect x="1072.5" y="30" width="50" height="50" fill="#ffcd8eff" 
            stroke-width="2" stroke="#ffb255ff" rx="0"  />

            </g>
<text dominant-baseline="middle" text-anchor="middle" 
            x="1097.5" y="40" class="a15"><tspan x = "1097.5" dy="1.0em">7</tspan></text><g >

            <ellipse cx="197.125" cy="820" rx="25" ry="25" fill="#bdd373ff" 
            stroke-width="2" stroke="#98c127ff"/>

            </g>
<text dominant-baseline="middle" text-anchor="middle" 
            x="197.125" y="805" class="a15"><tspan x = "197.125" dy="1.0em">|&gt;</tspan></text><g >

            <ellipse cx="737.5" cy="200" rx="25" ry="25" fill="#8fd7d7ff" 
            stroke-width="2" stroke="#00b0beff"/>

            </g>
<text dominant-baseline="middle" text-anchor="middle" 
            x="737.5" y="185" class="a15"><tspan x = "737.5" dy="1.0em">.1</tspan></text><g >

            <ellipse cx="664.375" cy="820" rx="25" ry="25" fill="#bdd373ff" 
            stroke-width="2" stroke="#98c127ff"/>

            </g>
<text dominant-baseline="middle" text-anchor="middle" 
            x="664.375" y="805" class="a15"><tspan x = "664.375" dy="1.0em">|&gt;</tspan></text><g >

            <ellipse cx="961" cy="200" rx="25" ry="25" fill="#bdd373ff" 
            stroke-width="2" stroke="#98c127ff"/>

            </g>
<text dominant-baseline="middle" text-anchor="middle" 
            x="961" y="185" class="a15"><tspan x = "961" dy="1.0em">|&gt;</tspan></text><g >

            <ellipse cx="664.375" cy="420" rx="25" ry="25" fill="#8fd7d7ff" 
            stroke-width="2" stroke="#00b0beff"/>

            </g>
<text dominant-baseline="middle" text-anchor="middle" 
            x="664.375" y="405" class="a15"><tspan x = "664.375" dy="1.0em">tuple</tspan></text><g >

            <ellipse cx="407.5" cy="200" rx="25" ry="25" fill="#8fd7d7ff" 
            stroke-width="2" stroke="#00b0beff"/>

            </g>
<text dominant-baseline="middle" text-anchor="middle" 
            x="407.5" y="185" class="a15"><tspan x = "407.5" dy="1.0em">.0</tspan></text><g >

            <ellipse cx="961" cy="310" rx="25" ry="25" fill="#ff8ca1ff" 
            stroke-width="2" stroke="#f45f74ff"/>

            </g>
<g >

            <ellipse cx="961" cy="310" rx="29" ry="29" fill="#00000000" 
            stroke-width="2" stroke="#f45f74ff"/>

            </g>
<text dominant-baseline="middle" text-anchor="middle" 
            x="961" y="295" class="a15"><tspan x = "961" dy="1.0em">END</tspan></text><g >

            <ellipse cx="234.75" cy="310" rx="25" ry="25" fill="#8fd7d7ff" 
            stroke-width="2" stroke="#00b0beff"/>

            </g>
<text dominant-baseline="middle" text-anchor="middle" 
            x="234.75" y="295" class="a15"><tspan x = "234.75" dy="1.0em">==</tspan></text><g >

            <rect x="492.5" y="175" width="50" height="50" fill="#ffcd8eff" 
            stroke-width="2" stroke="#ffb255ff" rx="0"  />

            </g>
<text dominant-baseline="middle" text-anchor="middle" 
            x="517.5" y="185" class="a15"><tspan x = "517.5" dy="1.0em">1</tspan></text><g >

            <ellipse cx="572.5" cy="310" rx="25" ry="25" fill="#8fd7d7ff" 
            stroke-width="2" stroke="#00b0beff"/>

            </g>
<text dominant-baseline="middle" text-anchor="middle" 
            x="572.5" y="295" class="a15"><tspan x = "572.5" dy="1.0em">*</tspan></text><g >

            <rect x="960.75" y="30" width="50" height="50" fill="#ff8ca1ff" 
            stroke-width="2" stroke="#f45f74ff" rx="0"  />

            </g>
<text dominant-baseline="middle" text-anchor="middle" 
            x="985.75" y="40" class="a15"><tspan x = "985.75" dy="1.0em">function</tspan></text><g >

            <rect x="602.5" y="175" width="50" height="50" fill="#ffcd8eff" 
            stroke-width="2" stroke="#ffb255ff" rx="0"  />

            </g>
<text dominant-baseline="middle" text-anchor="middle" 
            x="627.5" y="185" class="a15"><tspan x = "627.5" dy="1.0em">-1</tspan></text><g >

            <ellipse cx="462.5" cy="530" rx="25" ry="25" fill="#8fd7d7ff" 
            stroke-width="2" stroke="#00b0beff"/>

            </g>
<text dominant-baseline="middle" text-anchor="middle" 
            x="462.5" y="515" class="a15"><tspan x = "462.5" dy="1.0em">tuple</tspan></text><g >

            <rect x="81" y="650" width="50" height="50" fill="#ff8ca1ff" 
            stroke-width="2" stroke="#f45f74ff" rx="0"  />

            </g>
<text dominant-baseline="middle" text-anchor="middle" 
            x="106" y="660" class="a15"><tspan x = "106" dy="1.0em">function</tspan></text><g >

            <ellipse cx="462.5" cy="310" rx="25" ry="25" fill="#8fd7d7ff" 
            stroke-width="2" stroke="#00b0beff"/>

            </g>
<text dominant-baseline="middle" text-anchor="middle" 
            x="462.5" y="295" class="a15"><tspan x = "462.5" dy="1.0em">+</tspan></text><g >

            <rect x="439.5" y="30" width="50" height="50" fill="#ff8ca1ff" 
            stroke-width="2" stroke="#f45f74ff" rx="0"  />

            </g>
<text dominant-baseline="middle" text-anchor="middle" 
            x="464.5" y="40" class="a15"><tspan x = "464.5" dy="1.0em">input</tspan></text><g >

            <rect x="209.75" y="175" width="50" height="50" fill="#ffcd8eff" 
            stroke-width="2" stroke="#ffb255ff" rx="0"  />

            </g>
<text dominant-baseline="middle" text-anchor="middle" 
            x="234.75" y="185" class="a15"><tspan x = "234.75" dy="1.0em">0</tspan></text><g >

            <rect x="209.75" y="505" width="50" height="50" fill="#ff8ca1ff" 
            stroke-width="2" stroke="#f45f74ff" rx="0"  />

            </g>
<text dominant-baseline="middle" text-anchor="middle" 
            x="234.75" y="515" class="a15"><tspan x = "234.75" dy="1.0em">switch</tspan></text><text dominant-baseline="middle" text-anchor="middle" 
            x="151.5625" y="732.5" class="a15"><tspan x = "151.5625" dy="1.0em">apply</tspan></text><text dominant-baseline="middle" text-anchor="middle" 
            x="601" y="112.5" class="a15"><tspan x = "601" dy="1.0em">1</tspan></text><text dominant-baseline="middle" text-anchor="middle" 
            x="356" y="732.5" class="a15"><tspan x = "356" dy="1.0em">apply</tspan></text><text dominant-baseline="middle" text-anchor="middle" 
            x="664.375" y="732.5" class="a15"><tspan x = "664.375" dy="1.0em">to data</tspan></text><text dominant-baseline="middle" text-anchor="middle" 
            x="1071" y="112.5" class="a15"><tspan x = "1071" dy="1.0em">apply</tspan></text><text dominant-baseline="middle" text-anchor="middle" 
            x="961" y="112.5" class="a15"><tspan x = "961" dy="1.0em">to data</tspan></text><text dominant-baseline="middle" text-anchor="middle" 
            x="755.9375" y="295" class="a15"><tspan x = "755.9375" dy="1.0em">0</tspan></text><text dominant-baseline="middle" text-anchor="middle" 
            x="664.375" y="295" class="a15"><tspan x = "664.375" dy="1.0em">1</tspan></text><text dominant-baseline="middle" text-anchor="middle" 
            x="436" y="112.5" class="a15"><tspan x = "436" dy="1.0em">0</tspan></text><text dominant-baseline="middle" text-anchor="middle" 
            x="847.5" y="112.5" class="a15"><tspan x = "847.5" dy="1.0em">body</tspan></text><text dominant-baseline="middle" text-anchor="middle" 
            x="462.5" y="405" class="a15"><tspan x = "462.5" dy="1.0em">0</tspan></text><text dominant-baseline="middle" text-anchor="middle" 
            x="517.5" y="405" class="a15"><tspan x = "517.5" dy="1.0em">1</tspan></text><text dominant-baseline="middle" text-anchor="middle" 
            x="106" y="587.5" class="a15"><tspan x = "106" dy="1.0em">body</tspan></text><text dominant-baseline="middle" text-anchor="middle" 
            x="208.25" y="587.5" class="a15"><tspan x = "208.25" dy="1.0em">input</tspan></text><text dominant-baseline="middle" text-anchor="middle" 
            x="234.75" y="405" class="a15"><tspan x = "234.75" dy="1.0em">if</tspan></text><text dominant-baseline="middle" text-anchor="middle" 
            x="377.25" y="405" class="a15"><tspan x = "377.25" dy="1.0em">then</tspan></text><text dominant-baseline="middle" text-anchor="middle" 
            x="462.5" y="660" class="a15"><tspan x = "462.5" dy="1.0em">to data</tspan></text><text dominant-baseline="middle" text-anchor="middle" 
            x="1124" y="660" class="a15"><tspan x = "1124" dy="1.0em">input</tspan></text><text dominant-baseline="middle" text-anchor="middle" 
            x="304.875" y="660" class="a15"><tspan x = "304.875" dy="1.0em">else</tspan></text><g >

            <path id="arrow0" d="M 960.75 66.37071651090342 C 938.5580553159942 86.55778145710177, 911.997292302971 105.13234335001911, 893 128 S 883.9579746481297 147.72805531317147, 871.4583333333334 175 " stroke="#000000ff" stroke-width="2"   marker-end="url(#endarrow)" 
            fill="transparent" />

            </g>
<text><textPath href="#arrow0" startOffset="50%" text-anchor="middle" class="a15"></textPath></text><g >

            <path id="arrow1" d="M 128.22426470588235 700 C 139.09963669794925 727.959368448414, 137.33834192984435 733.9147637050703, 151.5625 760 S 163.862776040363 776.1978943741406, 182.0058072910741 800.0899519882457 " stroke="#000000ff" stroke-width="2"   marker-end="url(#endarrow)" 
            fill="transparent" />

            </g>
<text><textPath href="#arrow1" startOffset="50%" text-anchor="middle" class="a15"></textPath></text><g >

            <path id="arrow2" d="M 462.5 555 C 462.5 585, 462.5 573, 462.5 603 S 462.5 657.5, 462.5 687.5 S 323.07216387645803 723.3953926745971, 297.5 738 S 239.71863598511771 785.2037045999537, 216.48574362959897 804.183502090888 " stroke="#000000ff" stroke-width="2"   marker-end="url(#endarrow)" 
            fill="transparent" />

            </g>
<text><textPath href="#arrow2" startOffset="50%" text-anchor="middle" class="a15"></textPath></text><g >

            <path id="arrow3" d="M 489.5 63.568548387096776 C 514.2445244756678 80.53052080993359, 574.9623811560365 125.36324564501847, 601 140 S 687.1495180229591 177.86792001009195, 714.6134172831632 189.93996364095088 " stroke="#000000ff" stroke-width="2"   marker-end="url(#endarrow)" 
            fill="transparent" />

            </g>
<text><textPath href="#arrow3" startOffset="50%" text-anchor="middle" class="a15"></textPath></text><g >

            <path id="arrow4" d="M 131 679.4736842105264 C 159.24552434312267 689.5826087122755, 327.23505390963163 751.7831171507626, 356 760 S 610.3874067859103 809.4957256818958, 639.8351849026865 815.2253298554072 " stroke="#000000ff" stroke-width="2"   marker-end="url(#endarrow)" 
            fill="transparent" />

            </g>
<text><textPath href="#arrow4" startOffset="50%" text-anchor="middle" class="a15"></textPath></text><g >

            <path id="arrow5" d="M 664.375 445 C 664.375 475, 664.375 500.5, 664.375 530.5 S 664.375 573, 664.375 603 S 664.375 645.5, 664.375 675.5 S 664.375 730, 664.375 760 S 664.375 765, 664.375 795 " stroke="#000000ff" stroke-width="2"   marker-end="url(#endarrow)" 
            fill="transparent" />

            </g>
<text><textPath href="#arrow5" startOffset="50%" text-anchor="middle" class="a15"></textPath></text><g >

            <path id="arrow6" d="M 1010.75 69.60481099656357 C 1030.2571744635902 92.39669868598176, 1070.9820387038146 120.79031000165233, 1071 140 S 1009.2842565102911 173.66313281256848, 982.9473893228596 188.02869673298568 " stroke="#000000ff" stroke-width="2"   marker-end="url(#endarrow)" 
            fill="transparent" />

            </g>
<text><textPath href="#arrow6" startOffset="50%" text-anchor="middle" class="a15"></textPath></text><g >

            <path id="arrow7" d="M 1072.5 63.568548387096776 C 1047.7554755243323 80.53052080993359, 961 110, 961 140 S 961 145, 961 175 " stroke="#000000ff" stroke-width="2"   marker-end="url(#endarrow)" 
            fill="transparent" />

            </g>
<text><textPath href="#arrow7" startOffset="50%" text-anchor="middle" class="a15"></textPath></text><g >

            <path id="arrow8" d="M 822.5 219.3675889328063 C 806.231800316847 244.57365326401563, 774.2484570786983 298.89105404418, 755.9375 322.5 S 702.0259442573142 379.907526934191, 681.4890655715064 401.7761486064505 " stroke="#000000ff" stroke-width="2"   marker-end="url(#endarrow)" 
            fill="transparent" />

            </g>
<text><textPath href="#arrow8" startOffset="50%" text-anchor="middle" class="a15"></textPath></text><g >

            <path id="arrow9" d="M 542.5 211.3953488372093 C 564.6701852372878 231.60630840236468, 664.375 292.5, 664.375 322.5 S 664.375 365, 664.375 395 " stroke="#000000ff" stroke-width="2"   marker-end="url(#endarrow)" 
            fill="transparent" />

            </g>
<text><textPath href="#arrow9" startOffset="50%" text-anchor="middle" class="a15"></textPath></text><g >

            <path id="arrow10" d="M 447.29411764705884 80 C 441.7445211162416 109.4822315699667, 445.05639943723895 111.65950113012002, 436 140 S 431.09812480125584 150.31973726051407, 418.2264203642072 177.41806239114277 " stroke="#000000ff" stroke-width="2"   marker-end="url(#endarrow)" 
            fill="transparent" />

            </g>
<text><textPath href="#arrow10" startOffset="50%" text-anchor="middle" class="a15"></textPath></text><g >

            <path id="arrow11" d="M 961 225 C 961 255, 961 255, 961 285 " stroke="#000000ff" stroke-width="2"   marker-end="url(#endarrow)" 
            fill="transparent" />

            </g>
<text><textPath href="#arrow11" startOffset="50%" text-anchor="middle" class="a15"></textPath></text><g >

            <path id="arrow12" d="M 386.4122334785798 213.42781080958736 C 361.1069136528756 229.5411837810922, 281.1430863471243 280.4588162189078, 255.83776652142015 296.57218919041264 " stroke="#000000ff" stroke-width="2"   marker-end="url(#endarrow)" 
            fill="transparent" />

            </g>
<text><textPath href="#arrow12" startOffset="50%" text-anchor="middle" class="a15"></textPath></text><g >

            <path id="arrow13" d="M 234.75 225 C 234.75 255, 234.75 255, 234.75 285 " stroke="#000000ff" stroke-width="2"   marker-end="url(#endarrow)" 
            fill="transparent" />

            </g>
<text><textPath href="#arrow13" startOffset="50%" text-anchor="middle" class="a15"></textPath></text><g >

            <path id="arrow14" d="M 428.3012573584461 213.86750490563074 C 453.2627661885814 230.5085107923876, 526.7372338114186 279.4914892076124, 551.698742641554 296.1324950943693 " stroke="#000000ff" stroke-width="2"   marker-end="url(#endarrow)" 
            fill="transparent" />

            </g>
<text><textPath href="#arrow14" startOffset="50%" text-anchor="middle" class="a15"></textPath></text><g >

            <path id="arrow15" d="M 716.698742641554 213.86750490563074 C 691.7372338114186 230.5085107923876, 618.2627661885815 279.4914892076124, 593.3012573584462 296.1324950943693 " stroke="#000000ff" stroke-width="2"   marker-end="url(#endarrow)" 
            fill="transparent" />

            </g>
<text><textPath href="#arrow15" startOffset="50%" text-anchor="middle" class="a15"></textPath></text><g >

            <path id="arrow16" d="M 960.75 63.4493041749503 C 935.8954289463883 80.24961065254072, 847.5 110, 847.5 140 S 847.5 145, 847.5 175 " stroke="#000000ff" stroke-width="2"  marker-start="url(#startarrow)"  
            fill="transparent" />

            </g>
<text><textPath href="#arrow16" startOffset="50%" text-anchor="middle" class="a15"></textPath></text><g >

            <path id="arrow17" d="M 1010.75 61.262425447316105 C 1037.5721423846142 74.70015880899157, 1124 88, 1124 118 S 1124 170.5, 1124 200.5 S 1124 280.5, 1124 310.5 S 1124 390.5, 1124 420.5 S 1124 500.5, 1124 530.5 S 1124 573, 1124 603 S 1124 657.5, 1124 687.5 S 1124 718, 1124 748 S 718.712347198522 811.488084855494, 689.0737941811464 816.1309476615882 " stroke="#000000ff" stroke-width="2"  marker-start="url(#startarrow)"  
            fill="transparent" />

            </g>
<text><textPath href="#arrow17" startOffset="50%" text-anchor="middle" class="a15"></textPath></text><g >

            <path id="arrow18" d="M 462.5 335 C 462.5 365, 462.5 402.5, 462.5 432.5 S 462.5 475, 462.5 505 " stroke="#000000ff" stroke-width="2"   marker-end="url(#endarrow)" 
            fill="transparent" />

            </g>
<text><textPath href="#arrow18" startOffset="50%" text-anchor="middle" class="a15"></textPath></text><g >

            <path id="arrow19" d="M 562.260239929154 332.80673833961157 C 549.9725278441388 360.17482434714543, 530.9989185633716 405.7438254894303, 517.5 432.5 S 489.522665281255 482.09618427413886, 474.78302967329773 508.22553830642676 " stroke="#000000ff" stroke-width="2"   marker-end="url(#endarrow)" 
            fill="transparent" />

            </g>
<text><textPath href="#arrow19" startOffset="50%" text-anchor="middle" class="a15"></textPath></text><g >

            <path id="arrow20" d="M 439.5 57.63728323699422 C 410.1462096519514 63.83042397516633, 106 98, 106 128 S 106 170.5, 106 200.5 S 106 280.5, 106 310.5 S 106 390.5, 106 420.5 S 106 500.5, 106 530.5 S 106 585, 106 615 S 106 620, 106 650 " stroke="#000000ff" stroke-width="2"   marker-end="url(#endarrow)" 
            fill="transparent" />

            </g>
<text><textPath href="#arrow20" startOffset="50%" text-anchor="middle" class="a15"></textPath></text><g >

            <path id="arrow21" d="M 218.13235294117646 555 C 213.25686513479008 584.601175967346, 220.2446064267126 590.2869670648397, 208.25 615 S 155.94011252450176 649.9703983123109, 131 666.6434540389972 " stroke="#000000ff" stroke-width="2"   marker-end="url(#endarrow)" 
            fill="transparent" />

            </g>
<text><textPath href="#arrow21" startOffset="50%" text-anchor="middle" class="a15"></textPath></text><g >

            <path id="arrow22" d="M 418.680339887499 222.3606797749979 C 432.0967477524977 249.19349550499538, 437.90325224750234 260.8065044950046, 451.3196601125011 287.6393202250021 " stroke="#000000ff" stroke-width="2"   marker-end="url(#endarrow)" 
            fill="transparent" />

            </g>
<text><textPath href="#arrow22" startOffset="50%" text-anchor="middle" class="a15"></textPath></text><g >

            <path id="arrow23" d="M 602.5 209.01639344262296 C 578.1691097157171 226.56654381161385, 507.10663218785186 277.8247243235167, 482.77574190356904 295.3748746925076 " stroke="#000000ff" stroke-width="2"   marker-end="url(#endarrow)" 
            fill="transparent" />

            </g>
<text><textPath href="#arrow23" startOffset="50%" text-anchor="middle" class="a15"></textPath></text><g >

            <path id="arrow24" d="M 439.5 58.036605657237935 C 410.3478656886418 65.11848853487237, 151.5 98, 151.5 128 S 151.5 170.5, 151.5 200.5 S 151.5 280.5, 151.5 310.5 S 151.5 390.5, 151.5 420.5 S 151.5 500.5, 151.5 530.5 S 151.5 573, 151.5 603 S 142.45797464812975 622.7280553131715, 129.95833333333334 650 " stroke="#000000ff" stroke-width="2"  marker-start="url(#startarrow)"  
            fill="transparent" />

            </g>
<text><textPath href="#arrow24" startOffset="50%" text-anchor="middle" class="a15"></textPath></text><g >

            <path id="arrow25" d="M 234.75 335 C 234.75 365, 234.75 402.5, 234.75 432.5 S 234.75 475, 234.75 505 " stroke="#000000ff" stroke-width="2"   marker-end="url(#endarrow)" 
            fill="transparent" />

            </g>
<text><textPath href="#arrow25" startOffset="50%" text-anchor="middle" class="a15"></textPath></text><g >

            <path id="arrow26" d="M 492.5 210.81213307240705 C 469.81029239985213 230.43806410815137, 377.25 280.5, 377.25 310.5 S 377.25 402.5, 377.25 432.5 S 283.75 502.625, 259.75 520.625 " stroke="#000000ff" stroke-width="2"   marker-end="url(#endarrow)" 
            fill="transparent" />

            </g>
<text><textPath href="#arrow26" startOffset="50%" text-anchor="middle" class="a15"></textPath></text><g >

            <path id="arrow27" d="M 259.75 545.8351409978308 C 278.3380212897073 569.3826560372864, 304.875 573, 304.875 603 S 304.875 657.5, 304.875 687.5 S 197.125 718, 197.125 748 S 197.125 765, 197.125 795 " stroke="#000000ff" stroke-width="2"  marker-start="url(#startarrow)"  
            fill="transparent" />

            </g>
<text><textPath href="#arrow27" startOffset="50%" text-anchor="middle" class="a15"></textPath></text></svg>