<?xml version="1.0" encoding="UTF-8" standalone="no"?><svg width="520.125" height="1020" viewBox="0 0 520.125 1020" xmlns="http://www.w3.org/2000/svg">
<defs>
<marker id="startarrow" markerWidth="10" markerHeight="7"
refX="0" refY="3.5" orient="auto">
<polygon points="10 0, 10 7, 0 3.5" fill="context-stroke" />
</marker>
<marker id="endarrow" markerWidth="10" markerHeight="7"
refX="10" refY="3.5" orient="auto">
<polygon points="0 0, 10 3.5, 0 7" fill="context-stroke" />
</marker>

</defs><style>
.a15 { font-size: 15px; font-family: Times, serif; }
</style>
<g >

            <rect x="30" y="575" width="50" height="50" fill="#ff8ca1ff" 
            stroke-width="2" stroke="#f45f74ff" rx="0"  />

            </g>
<text dominant-baseline="middle" text-anchor="middle" 
            x="55" y="585" class="a15"><tspan x = "55" dy="1.0em">input</tspan></text><g >

            <ellipse cx="381" cy="600" rx="25" ry="25" fill="#bdd373ff" 
            stroke-width="2" stroke="#98c127ff"/>

            </g>
<text dominant-baseline="middle" text-anchor="middle" 
            x="381" y="585" class="a15"><tspan x = "381" dy="1.0em">|&gt;</tspan></text><g >

            <ellipse cx="381" cy="710" rx="25" ry="25" fill="#ff8ca1ff" 
            stroke-width="2" stroke="#f45f74ff"/>

            </g>
<g >

            <ellipse cx="381" cy="710" rx="29" ry="29" fill="#00000000" 
            stroke-width="2" stroke="#f45f74ff"/>

            </g>
<text dominant-baseline="middle" text-anchor="middle" 
            x="381" y="695" class="a15"><tspan x = "381" dy="1.0em">END</tspan></text><g >

            <rect x="245.25" y="430" width="50" height="50" fill="#ff8ca1ff" 
            stroke-width="2" stroke="#f45f74ff" rx="0"  />

            </g>
<text dominant-baseline="middle" text-anchor="middle" 
            x="270.25" y="440" class="a15"><tspan x = "270.25" dy="1.0em">function</tspan></text><g >

            <ellipse cx="110" cy="965" rx="25" ry="25" fill="#8fd7d7ff" 
            stroke-width="2" stroke="#00b0beff"/>

            </g>
<text dominant-baseline="middle" text-anchor="middle" 
            x="110" y="950" class="a15"><tspan x = "110" dy="1.0em">*</tspan></text><g >

            <ellipse cx="110" cy="710" rx="25" ry="25" fill="#8fd7d7ff" 
            stroke-width="2" stroke="#00b0beff"/>

            </g>
<text dominant-baseline="middle" text-anchor="middle" 
            x="110" y="695" class="a15"><tspan x = "110" dy="1.0em">+</tspan></text><g >

            <rect x="465.125" y="430" width="50" height="50" fill="#ffcd8eff" 
            stroke-width="2" stroke="#ffb255ff" rx="0"  />

            </g>
<text dominant-baseline="middle" text-anchor="middle" 
            x="490.125" y="440" class="a15"><tspan x = "490.125" dy="1.0em">7</tspan></text><g >

            <rect x="278.25" y="30" width="50" height="50" fill="#ffcd8eff" 
            stroke-width="2" stroke="#ffb255ff" rx="0"  />

            </g>
<text dominant-baseline="middle" text-anchor="middle" 
            x="303.25" y="40" class="a15"><tspan x = "303.25" dy="1.0em">0</tspan></text><g >

            <rect x="140" y="575" width="50" height="50" fill="#ffcd8eff" 
            stroke-width="2" stroke="#ffb255ff" rx="0"  />

            </g>
<text dominant-baseline="middle" text-anchor="middle" 
            x="165" y="585" class="a15"><tspan x = "165" dy="1.0em">-1</tspan></text><g >

            <rect x="275.5" y="285" width="50" height="50" fill="#ff8ca1ff" 
            stroke-width="2" stroke="#f45f74ff" rx="0"  />

            </g>
<text dominant-baseline="middle" text-anchor="middle" 
            x="300.5" y="295" class="a15"><tspan x = "300.5" dy="1.0em">switch</tspan></text><g >

            <ellipse cx="110" cy="855" rx="25" ry="25" fill="#bdd373ff" 
            stroke-width="2" stroke="#98c127ff"/>

            </g>
<text dominant-baseline="middle" text-anchor="middle" 
            x="110" y="840" class="a15"><tspan x = "110" dy="1.0em">|&gt;</tspan></text><g >

            <ellipse cx="303.25" cy="165" rx="25" ry="25" fill="#8fd7d7ff" 
            stroke-width="2" stroke="#00b0beff"/>

            </g>
<text dominant-baseline="middle" text-anchor="middle" 
            x="303.25" y="150" class="a15"><tspan x = "303.25" dy="1.0em">==</tspan></text><g >

            <rect x="168.25" y="140" width="50" height="50" fill="#ffcd8eff" 
            stroke-width="2" stroke="#ffb255ff" rx="0"  />

            </g>
<text dominant-baseline="middle" text-anchor="middle" 
            x="193.25" y="150" class="a15"><tspan x = "193.25" dy="1.0em">1</tspan></text><text dominant-baseline="middle" text-anchor="middle" 
            x="381" y="512.5" class="a15"><tspan x = "381" dy="1.0em">apply</tspan></text><text dominant-baseline="middle" text-anchor="middle" 
            x="435.5625" y="512.5" class="a15"><tspan x = "435.5625" dy="1.0em">to</tspan></text><text dominant-baseline="middle" text-anchor="middle" 
            x="157.625" y="512.5" class="a15"><tspan x = "157.625" dy="1.0em">input</tspan></text><text dominant-baseline="middle" text-anchor="middle" 
            x="270.25" y="367.5" class="a15"><tspan x = "270.25" dy="1.0em">body</tspan></text><text dominant-baseline="middle" text-anchor="middle" 
            x="434.25" y="222.5" class="a15"><tspan x = "434.25" dy="1.0em">if</tspan></text><text dominant-baseline="middle" text-anchor="middle" 
            x="246.875" y="222.5" class="a15"><tspan x = "246.875" dy="1.0em">then</tspan></text><text dominant-baseline="middle" text-anchor="middle" 
            x="110" y="767.5" class="a15"><tspan x = "110" dy="1.0em">to</tspan></text><text dominant-baseline="middle" text-anchor="middle" 
            x="320.5" y="767.5" class="a15"><tspan x = "320.5" dy="1.0em">else</tspan></text><text dominant-baseline="middle" text-anchor="middle" 
            x="267.5" y="585" class="a15"><tspan x = "267.5" dy="1.0em">apply</tspan></text><g >

            <path id="arrow0" d="M 245.25 478.342175066313 C 231.08752769048246 504.78880770795854, 229.08469398026375 521.5014224827984, 210.625 543 S 107.87105637455359 583.9220945792171, 80 595.0218340611353 " stroke="#000000ff" stroke-width="2"   marker-end="url(#endarrow)" 
            fill="transparent" />

            </g>
<text><textPath href="#arrow0" startOffset="50%" text-anchor="middle" class="a15"></textPath></text><g >

            <path id="arrow1" d="M 295.25 465.8142493638677 C 317.9378069641385 485.44237752622666, 381 510, 381 540 S 381 545, 381 575 " stroke="#000000ff" stroke-width="2"   marker-end="url(#endarrow)" 
            fill="transparent" />

            </g>
<text><textPath href="#arrow1" startOffset="50%" text-anchor="middle" class="a15"></textPath></text><g >

            <path id="arrow2" d="M 465.25367647058823 480 C 451.94809787866234 506.88794485144007, 451.97829785041927 515.2341500091735, 435.5625 540 S 418.0033324142201 559.3090502661497, 397.81969655191824 581.5041137573407 " stroke="#000000ff" stroke-width="2"   marker-end="url(#endarrow)" 
            fill="transparent" />

            </g>
<text><textPath href="#arrow2" startOffset="50%" text-anchor="middle" class="a15"></textPath></text><g >

            <path id="arrow3" d="M 381 625 C 381 655, 381 655, 381 685 " stroke="#000000ff" stroke-width="2"   marker-end="url(#endarrow)" 
            fill="transparent" />

            </g>
<text><textPath href="#arrow3" startOffset="50%" text-anchor="middle" class="a15"></textPath></text><g >

            <path id="arrow4" d="M 245.25 465.61173533083644 C 222.3798487170136 485.02709472213576, 181.98383243786188 522.6855459217278, 157.625 540 S 104.97216077357339 575.0532078067749, 80 591.6782246879334 " stroke="#000000ff" stroke-width="2"  marker-start="url(#startarrow)"  
            fill="transparent" />

            </g>
<text><textPath href="#arrow4" startOffset="50%" text-anchor="middle" class="a15"></textPath></text><g >

            <path id="arrow5" d="M 282.77941176470586 335 C 276.64698826479344 364.3665350700031, 270.25 365, 270.25 395 S 270.25 400, 270.25 430 " stroke="#000000ff" stroke-width="2"   marker-end="url(#endarrow)" 
            fill="transparent" />

            </g>
<text><textPath href="#arrow5" startOffset="50%" text-anchor="middle" class="a15"></textPath></text><g >

            <path id="arrow6" d="M 38.484162895927604 625 C 33.72615315233294 654.6202860094203, 24.75 680.5, 24.75 710.5 S 24.75 753, 24.75 783 S 24.75 825.5, 24.75 855.5 S 76.2126912696894 921.6016386396597, 94.64213239531337 945.2734721089362 " stroke="#000000ff" stroke-width="2"   marker-end="url(#endarrow)" 
            fill="transparent" />

            </g>
<text><textPath href="#arrow6" startOffset="50%" text-anchor="middle" class="a15"></textPath></text><g >

            <path id="arrow7" d="M 110 880 C 110 910, 110 910, 110 940 " stroke="#000000ff" stroke-width="2"   marker-end="url(#endarrow)" 
            fill="transparent" />

            </g>
<text><textPath href="#arrow7" startOffset="50%" text-anchor="middle" class="a15"></textPath></text><g >

            <path id="arrow8" d="M 77.1590909090909 625 C 87.97106928515578 652.9839440321679, 90.17803964388106 658.6961026076922, 100.99001801994594 686.68004663986 " stroke="#000000ff" stroke-width="2"   marker-end="url(#endarrow)" 
            fill="transparent" />

            </g>
<text><textPath href="#arrow8" startOffset="50%" text-anchor="middle" class="a15"></textPath></text><g >

            <path id="arrow9" d="M 142.8409090909091 625 C 132.02893071484422 652.9839440321679, 129.82196035611895 658.6961026076922, 119.00998198005406 686.68004663986 " stroke="#000000ff" stroke-width="2"   marker-end="url(#endarrow)" 
            fill="transparent" />

            </g>
<text><textPath href="#arrow9" startOffset="50%" text-anchor="middle" class="a15"></textPath></text><g >

            <path id="arrow10" d="M 324.222056525886 178.60782293664357 C 349.3885243569492 194.93721046061586, 433.8932952235288 235.58328036451246, 434.25 250 S 352.3880258718557 290.5090181252673, 325.5 303.8144329896907 " stroke="#000000ff" stroke-width="2"   marker-end="url(#endarrow)" 
            fill="transparent" />

            </g>
<text><textPath href="#arrow10" startOffset="50%" text-anchor="middle" class="a15"></textPath></text><g >

            <path id="arrow11" d="M 217.84558823529412 190 C 230.91137802235247 217.00527980303855, 230.67154291020202 225.0955044307769, 246.875 250 S 258.5391589671029 267.0176179459252, 275.5 291.7629179331307 " stroke="#000000ff" stroke-width="2"   marker-end="url(#endarrow)" 
            fill="transparent" />

            </g>
<text><textPath href="#arrow11" startOffset="50%" text-anchor="middle" class="a15"></textPath></text><g >

            <path id="arrow12" d="M 325.5 323.41911764705884 C 345.9481096531051 345.370764774657, 381 353, 381 383 S 381 425.5, 381 455.5 S 320.5 498, 320.5 528 S 320.5 570.5, 320.5 600.5 S 320.5 680.5, 320.5 710.5 S 320.5 765, 320.5 795 S 320.5 825.5, 320.5 855.5 S 158.79312836801967 939.6183013952582, 132.17869471273622 953.4628642705719 " stroke="#000000ff" stroke-width="2"  marker-start="url(#startarrow)"  
            fill="transparent" />

            </g>
<text><textPath href="#arrow12" startOffset="50%" text-anchor="middle" class="a15"></textPath></text><g >

            <path id="arrow13" d="M 269.3082191780822 480 C 268.178883240302 509.9787358028927, 267.5 498, 267.5 528 S 267.5 582.5, 267.5 612.5 S 267.5 680.5, 267.5 710.5 S 267.5 753, 267.5 783 S 160.021096157219 832.1332131852713, 132.736861889645 844.6060059933052 " stroke="#000000ff" stroke-width="2"   marker-end="url(#endarrow)" 
            fill="transparent" />

            </g>
<text><textPath href="#arrow13" startOffset="50%" text-anchor="middle" class="a15"></textPath></text><g >

            <path id="arrow14" d="M 110 735 C 110 765, 110 765, 110 795 S 110 800, 110 830 " stroke="#000000ff" stroke-width="2"   marker-end="url(#endarrow)" 
            fill="transparent" />

            </g>
<text><textPath href="#arrow14" startOffset="50%" text-anchor="middle" class="a15"></textPath></text><g >

            <path id="arrow15" d="M 279.26547788494537 172.05285041046923 C 250.48405134687982 180.5162709030323, 55 208, 55 238 S 55 280.5, 55 310.5 S 55 353, 55 383 S 55 425.5, 55 455.5 S 55 498, 55 528 S 55 545, 55 575 " stroke="#000000ff" stroke-width="2"  marker-start="url(#startarrow)"  
            fill="transparent" />

            </g>
<text><textPath href="#arrow15" startOffset="50%" text-anchor="middle" class="a15"></textPath></text><g >

            <path id="arrow16" d="M 303.25 80 C 303.25 110, 303.25 110, 303.25 140 " stroke="#000000ff" stroke-width="2"   marker-end="url(#endarrow)" 
            fill="transparent" />

            </g>
<text><textPath href="#arrow16" startOffset="50%" text-anchor="middle" class="a15"></textPath></text></svg>