<?xml version="1.0" encoding="UTF-8" standalone="no"?><svg width="689.75" height="775" viewBox="0 0 689.75 775" xmlns="http://www.w3.org/2000/svg">
<defs>
<marker id="startarrow" markerWidth="10" markerHeight="7"
refX="0" refY="3.5" orient="auto">
<polygon points="10 0, 10 7, 0 3.5" fill="context-stroke" />
</marker>
<marker id="endarrow" markerWidth="10" markerHeight="7"
refX="10" refY="3.5" orient="auto">
<polygon points="0 0, 10 3.5, 0 7" fill="context-stroke" />
</marker>

</defs><style>
.a15 { font-size: 15px; font-family: Times, serif; }
</style>
<g >

            <rect x="405.5" y="175" width="50" height="50" fill="#ffcd8eff" 
            stroke-width="2" stroke="#ffb255ff" rx="0"  />

            </g>
<text dominant-baseline="middle" text-anchor="middle" 
            x="430.5" y="185" class="a15"><tspan x = "430.5" dy="1.0em">-1</tspan></text><g >

            <ellipse cx="55" cy="200" rx="25" ry="25" fill="#bdd373ff" 
            stroke-width="2" stroke="#98c127ff"/>

            </g>
<text dominant-baseline="middle" text-anchor="middle" 
            x="55" y="185" class="a15"><tspan x = "55" dy="1.0em">|&gt;</tspan></text><g >

            <rect x="524.75" y="175" width="50" height="50" fill="#ff8ca1ff" 
            stroke-width="2" stroke="#f45f74ff" rx="0"  />

            </g>
<text dominant-baseline="middle" text-anchor="middle" 
            x="549.75" y="185" class="a15"><tspan x = "549.75" dy="1.0em">input</tspan></text><g >

            <ellipse cx="320.5" cy="565" rx="25" ry="25" fill="#8fd7d7ff" 
            stroke-width="2" stroke="#00b0beff"/>

            </g>
<text dominant-baseline="middle" text-anchor="middle" 
            x="320.5" y="550" class="a15"><tspan x = "320.5" dy="1.0em">*</tspan></text><g >

            <ellipse cx="430.5" cy="310" rx="25" ry="25" fill="#8fd7d7ff" 
            stroke-width="2" stroke="#00b0beff"/>

            </g>
<text dominant-baseline="middle" text-anchor="middle" 
            x="430.5" y="295" class="a15"><tspan x = "430.5" dy="1.0em">+</tspan></text><g >

            <rect x="295.5" y="685" width="50" height="50" fill="#ff8ca1ff" 
            stroke-width="2" stroke="#f45f74ff" rx="0"  />

            </g>
<text dominant-baseline="middle" text-anchor="middle" 
            x="320.5" y="695" class="a15"><tspan x = "320.5" dy="1.0em">switch</tspan></text><g >

            <ellipse cx="604.75" cy="310" rx="25" ry="25" fill="#8fd7d7ff" 
            stroke-width="2" stroke="#00b0beff"/>

            </g>
<text dominant-baseline="middle" text-anchor="middle" 
            x="604.75" y="295" class="a15"><tspan x = "604.75" dy="1.0em">==</tspan></text><g >

            <rect x="634.75" y="175" width="50" height="50" fill="#ffcd8eff" 
            stroke-width="2" stroke="#ffb255ff" rx="0"  />

            </g>
<text dominant-baseline="middle" text-anchor="middle" 
            x="659.75" y="185" class="a15"><tspan x = "659.75" dy="1.0em">0</tspan></text><g >

            <ellipse cx="320.5" cy="455" rx="25" ry="25" fill="#bdd373ff" 
            stroke-width="2" stroke="#98c127ff"/>

            </g>
<text dominant-baseline="middle" text-anchor="middle" 
            x="320.5" y="440" class="a15"><tspan x = "320.5" dy="1.0em">|&gt;</tspan></text><g >

            <rect x="320.875" y="30" width="50" height="50" fill="#ff8ca1ff" 
            stroke-width="2" stroke="#f45f74ff" rx="0"  />

            </g>
<text dominant-baseline="middle" text-anchor="middle" 
            x="345.875" y="40" class="a15"><tspan x = "345.875" dy="1.0em">function</tspan></text><g >

            <rect x="47.75" y="540" width="50" height="50" fill="#ffcd8eff" 
            stroke-width="2" stroke="#ffb255ff" rx="0"  />

            </g>
<text dominant-baseline="middle" text-anchor="middle" 
            x="72.75" y="550" class="a15"><tspan x = "72.75" dy="1.0em">1</tspan></text><g >

            <ellipse cx="55" cy="310" rx="25" ry="25" fill="#ff8ca1ff" 
            stroke-width="2" stroke="#f45f74ff"/>

            </g>
<g >

            <ellipse cx="55" cy="310" rx="29" ry="29" fill="#00000000" 
            stroke-width="2" stroke="#f45f74ff"/>

            </g>
<text dominant-baseline="middle" text-anchor="middle" 
            x="55" y="295" class="a15"><tspan x = "55" dy="1.0em">END</tspan></text><g >

            <rect x="30" y="30" width="50" height="50" fill="#ffcd8eff" 
            stroke-width="2" stroke="#ffb255ff" rx="0"  />

            </g>
<text dominant-baseline="middle" text-anchor="middle" 
            x="55" y="40" class="a15"><tspan x = "55" dy="1.0em">7</tspan></text><text dominant-baseline="middle" text-anchor="middle" 
            x="55" y="92.5" class="a15"><tspan x = "55" dy="1.0em">apply</tspan></text><text dominant-baseline="middle" text-anchor="middle" 
            x="165" y="112.5" class="a15"><tspan x = "165" dy="1.0em">to data</tspan></text><text dominant-baseline="middle" text-anchor="middle" 
            x="72.75" y="622.5" class="a15"><tspan x = "72.75" dy="1.0em">then</tspan></text><text dominant-baseline="middle" text-anchor="middle" 
            x="320.5" y="622.5" class="a15"><tspan x = "320.5" dy="1.0em">else</tspan></text><text dominant-baseline="middle" text-anchor="middle" 
            x="320.5" y="367.5" class="a15"><tspan x = "320.5" dy="1.0em">apply</tspan></text><text dominant-baseline="middle" text-anchor="middle" 
            x="430.5" y="367.5" class="a15"><tspan x = "430.5" dy="1.0em">to data</tspan></text><text dominant-baseline="middle" text-anchor="middle" 
            x="447.8125" y="112.5" class="a15"><tspan x = "447.8125" dy="1.0em">body</tspan></text><text dominant-baseline="middle" text-anchor="middle" 
            x="233" y="622.5" class="a15"><tspan x = "233" dy="1.0em">input</tspan></text><text dominant-baseline="middle" text-anchor="middle" 
            x="604.75" y="440" class="a15"><tspan x = "604.75" dy="1.0em">if</tspan></text><g >

            <path id="arrow0" d="M 320.875 57.91872474180512 C 291.6608284467279 64.74017476771509, 55 90, 55 120 S 55 145, 55 175 " stroke="#000000ff" stroke-width="2"   marker-end="url(#endarrow)" 
            fill="transparent" />

            </g>
<text><textPath href="#arrow0" startOffset="50%" text-anchor="middle" class="a15"></textPath></text><g >

            <path id="arrow1" d="M 80 65.8974358974359 C 102.61318189723353 85.61149191040872, 165.57329479965657 122.81939777484763, 165 140 S 103.28425651029113 173.66313281256848, 76.9473893228596 188.02869673298568 " stroke="#000000ff" stroke-width="2"   marker-end="url(#endarrow)" 
            fill="transparent" />

            </g>
<text><textPath href="#arrow1" startOffset="50%" text-anchor="middle" class="a15"></textPath></text><g >

            <path id="arrow2" d="M 370.875 58.390617742684626 C 399.82874915812454 66.24430539170679, 634.988385801247 111.18690277528694, 627.5 128 S 594.8955827421657 163.97728800864465, 574.75 186.20689655172413 " stroke="#000000ff" stroke-width="2"   marker-end="url(#endarrow)" 
            fill="transparent" />

            </g>
<text><textPath href="#arrow2" startOffset="50%" text-anchor="middle" class="a15"></textPath></text><g >

            <path id="arrow3" d="M 533.2341628959276 225 C 528.4761531523329 254.62028600942028, 519.5 280.5, 519.5 310.5 S 519.5 353, 519.5 383 S 519.5 425.5, 519.5 455.5 S 368.6867616242535 538.4851738801218, 342.4030734655698 552.9478063091462 " stroke="#000000ff" stroke-width="2"   marker-end="url(#endarrow)" 
            fill="transparent" />

            </g>
<text><textPath href="#arrow3" startOffset="50%" text-anchor="middle" class="a15"></textPath></text><g >

            <path id="arrow4" d="M 320.5 480 C 320.5 510, 320.5 510, 320.5 540 " stroke="#000000ff" stroke-width="2"   marker-end="url(#endarrow)" 
            fill="transparent" />

            </g>
<text><textPath href="#arrow4" startOffset="50%" text-anchor="middle" class="a15"></textPath></text><g >

            <path id="arrow5" d="M 524.75 212.88056206088993 C 503.85722077780616 234.40942121256506, 468.803428574022 270.5304248885956, 447.91064935182817 292.0592840402707 " stroke="#000000ff" stroke-width="2"   marker-end="url(#endarrow)" 
            fill="transparent" />

            </g>
<text><textPath href="#arrow5" startOffset="50%" text-anchor="middle" class="a15"></textPath></text><g >

            <path id="arrow6" d="M 430.5 225 C 430.5 255, 430.5 255, 430.5 285 " stroke="#000000ff" stroke-width="2"   marker-end="url(#endarrow)" 
            fill="transparent" />

            </g>
<text><textPath href="#arrow6" startOffset="50%" text-anchor="middle" class="a15"></textPath></text><g >

            <path id="arrow7" d="M 604.75 335 C 604.75 365, 604.75 353, 604.75 383 S 604.75 437.5, 604.75 467.5 S 604.75 535.5, 604.75 565.5 S 604.75 608, 604.75 638 S 374.49940915727984 699.0047563594327, 345.5 706.688132474701 " stroke="#000000ff" stroke-width="2"   marker-end="url(#endarrow)" 
            fill="transparent" />

            </g>
<text><textPath href="#arrow7" startOffset="50%" text-anchor="middle" class="a15"></textPath></text><g >

            <path id="arrow8" d="M 72.75 590 C 72.75 620, 72.75 620, 72.75 650 S 266.43057907807406 699.3978097542379, 295.5 706.8119022316685 " stroke="#000000ff" stroke-width="2"   marker-end="url(#endarrow)" 
            fill="transparent" />

            </g>
<text><textPath href="#arrow8" startOffset="50%" text-anchor="middle" class="a15"></textPath></text><g >

            <path id="arrow9" d="M 320.5 590 C 320.5 620, 320.5 620, 320.5 650 S 320.5 655, 320.5 685 " stroke="#000000ff" stroke-width="2"   marker-end="url(#endarrow)" 
            fill="transparent" />

            </g>
<text><textPath href="#arrow9" startOffset="50%" text-anchor="middle" class="a15"></textPath></text><g >

            <path id="arrow10" d="M 571.9090909090909 225 C 582.7210692851557 252.9839440321679, 584.9280396438811 258.69610260769224, 595.740018019946 286.6800466398601 " stroke="#000000ff" stroke-width="2"   marker-end="url(#endarrow)" 
            fill="transparent" />

            </g>
<text><textPath href="#arrow10" startOffset="50%" text-anchor="middle" class="a15"></textPath></text><g >

            <path id="arrow11" d="M 637.5909090909091 225 C 626.7789307148443 252.9839440321679, 624.5719603561189 258.69610260769224, 613.759981980054 286.6800466398601 " stroke="#000000ff" stroke-width="2"   marker-end="url(#endarrow)" 
            fill="transparent" />

            </g>
<text><textPath href="#arrow11" startOffset="50%" text-anchor="middle" class="a15"></textPath></text><g >

            <path id="arrow12" d="M 328.9657534246575 80 C 323.75507938582376 109.54401590950397, 320.5 98, 320.5 128 S 320.5 170.5, 320.5 200.5 S 320.5 280.5, 320.5 310.5 S 320.5 365, 320.5 395 S 320.5 400, 320.5 430 " stroke="#000000ff" stroke-width="2"   marker-end="url(#endarrow)" 
            fill="transparent" />

            </g>
<text><textPath href="#arrow12" startOffset="50%" text-anchor="middle" class="a15"></textPath></text><g >

            <path id="arrow13" d="M 430.5 335 C 430.5 365, 430.5 365, 430.5 395 S 368.7842565102912 428.66313281256845, 342.44738932285964 443.0286967329857 " stroke="#000000ff" stroke-width="2"   marker-end="url(#endarrow)" 
            fill="transparent" />

            </g>
<text><textPath href="#arrow13" startOffset="50%" text-anchor="middle" class="a15"></textPath></text><g >

            <path id="arrow14" d="M 370.875 66.87980433263452 C 392.6208090915635 87.54668089764246, 424.12376420717055 121.9103666196055, 447.8125 140 S 499.8368072329841 174.9010027558803, 524.75 191.61425576519918 " stroke="#000000ff" stroke-width="2"  marker-start="url(#startarrow)"  
            fill="transparent" />

            </g>
<text><textPath href="#arrow14" startOffset="50%" text-anchor="middle" class="a15"></textPath></text><g >

            <path id="arrow15" d="M 320.875 64.0909090909091 C 296.61291747090434 81.73606002116048, 233 98, 233 128 S 233 170.5, 233 200.5 S 233 280.5, 233 310.5 S 233 353, 233 383 S 233 425.5, 233 455.5 S 233 535.5, 233 565.5 S 233 620, 233 650 S 272.0739357167091 681.2591485733673, 295.5 700 " stroke="#000000ff" stroke-width="2"  marker-start="url(#startarrow)"  
            fill="transparent" />

            </g>
<text><textPath href="#arrow15" startOffset="50%" text-anchor="middle" class="a15"></textPath></text><g >

            <path id="arrow16" d="M 55 225 C 55 255, 55 255, 55 285 " stroke="#000000ff" stroke-width="2"   marker-end="url(#endarrow)" 
            fill="transparent" />

            </g>
<text><textPath href="#arrow16" startOffset="50%" text-anchor="middle" class="a15"></textPath></text></svg>