<?xml version="1.0" encoding="UTF-8" standalone="no"?><svg width="679.625" height="773" viewBox="0 0 679.625 773" xmlns="http://www.w3.org/2000/svg">
<defs>
<marker id="startarrow" markerWidth="10" markerHeight="7"
refX="0" refY="3.5" orient="auto">
<polygon points="10 0, 10 7, 0 3.5" fill="context-stroke" />
</marker>
<marker id="endarrow" markerWidth="10" markerHeight="7"
refX="10" refY="3.5" orient="auto">
<polygon points="0 0, 10 3.5, 0 7" fill="context-stroke" />
</marker>

</defs><style>
.a15 { font-size: 15px; font-family: Times, serif; }
</style>
<g >

            <rect x="195.875" y="430" width="50" height="50" fill="#ff8ca1ff" 
            stroke-width="2" stroke="#f45f74ff" rx="0"  />

            </g>
<text dominant-baseline="middle" text-anchor="middle" 
            x="220.875" y="440" class="a15"><tspan x = "220.875" dy="1.0em">function</tspan></text><g >

            <rect x="220.625" y="30" width="50" height="50" fill="#ffcd8eff" 
            stroke-width="2" stroke="#ffb255ff" rx="0"  />

            </g>
<text dominant-baseline="middle" text-anchor="middle" 
            x="245.625" y="40" class="a15"><tspan x = "245.625" dy="1.0em">0</tspan></text><g >

            <rect x="599.625" y="30" width="50" height="50" fill="#ffcd8eff" 
            stroke-width="2" stroke="#ffb255ff" rx="0"  />

            </g>
<text dominant-baseline="middle" text-anchor="middle" 
            x="624.625" y="40" class="a15"><tspan x = "624.625" dy="1.0em">-1</tspan></text><g >

            <ellipse cx="321.25" cy="600" rx="25" ry="25" fill="#bdd373ff" 
            stroke-width="2" stroke="#98c127ff"/>

            </g>
<text dominant-baseline="middle" text-anchor="middle" 
            x="321.25" y="585" class="a15"><tspan x = "321.25" dy="1.0em">|&gt;</tspan></text><g >

            <rect x="195.875" y="285" width="50" height="50" fill="#ff8ca1ff" 
            stroke-width="2" stroke="#f45f74ff" rx="0"  />

            </g>
<text dominant-baseline="middle" text-anchor="middle" 
            x="220.875" y="295" class="a15"><tspan x = "220.875" dy="1.0em">switch</tspan></text><g >

            <ellipse cx="164.125" cy="600" rx="25" ry="25" fill="#bdd373ff" 
            stroke-width="2" stroke="#98c127ff"/>

            </g>
<text dominant-baseline="middle" text-anchor="middle" 
            x="164.125" y="585" class="a15"><tspan x = "164.125" dy="1.0em">|&gt;</tspan></text><g >

            <ellipse cx="624.625" cy="165" rx="25" ry="25" fill="#8fd7d7ff" 
            stroke-width="2" stroke="#00b0beff"/>

            </g>
<text dominant-baseline="middle" text-anchor="middle" 
            x="624.625" y="150" class="a15"><tspan x = "624.625" dy="1.0em">+</tspan></text><g >

            <ellipse cx="425.875" cy="165" rx="25" ry="25" fill="#8fd7d7ff" 
            stroke-width="2" stroke="#00b0beff"/>

            </g>
<text dominant-baseline="middle" text-anchor="middle" 
            x="425.875" y="150" class="a15"><tspan x = "425.875" dy="1.0em">==</tspan></text><g >

            <rect x="290.875" y="140" width="50" height="50" fill="#ffcd8eff" 
            stroke-width="2" stroke="#ffb255ff" rx="0"  />

            </g>
<text dominant-baseline="middle" text-anchor="middle" 
            x="315.875" y="150" class="a15"><tspan x = "315.875" dy="1.0em">1</tspan></text><g >

            <ellipse cx="164.125" cy="710" rx="25" ry="25" fill="#ff8ca1ff" 
            stroke-width="2" stroke="#f45f74ff"/>

            </g>
<g >

            <ellipse cx="164.125" cy="710" rx="29" ry="29" fill="#00000000" 
            stroke-width="2" stroke="#f45f74ff"/>

            </g>
<text dominant-baseline="middle" text-anchor="middle" 
            x="164.125" y="695" class="a15"><tspan x = "164.125" dy="1.0em">END</tspan></text><g >

            <rect x="332.375" y="30" width="50" height="50" fill="#ff8ca1ff" 
            stroke-width="2" stroke="#f45f74ff" rx="0"  />

            </g>
<text dominant-baseline="middle" text-anchor="middle" 
            x="357.375" y="40" class="a15"><tspan x = "357.375" dy="1.0em">input</tspan></text><g >

            <ellipse cx="190.625" cy="165" rx="25" ry="25" fill="#8fd7d7ff" 
            stroke-width="2" stroke="#00b0beff"/>

            </g>
<text dominant-baseline="middle" text-anchor="middle" 
            x="190.625" y="150" class="a15"><tspan x = "190.625" dy="1.0em">*</tspan></text><g >

            <rect x="30" y="430" width="50" height="50" fill="#ffcd8eff" 
            stroke-width="2" stroke="#ffb255ff" rx="0"  />

            </g>
<text dominant-baseline="middle" text-anchor="middle" 
            x="55" y="440" class="a15"><tspan x = "55" dy="1.0em">7</tspan></text><text dominant-baseline="middle" text-anchor="middle" 
            x="486.375" y="367.5" class="a15"><tspan x = "486.375" dy="1.0em">input</tspan></text><text dominant-baseline="middle" text-anchor="middle" 
            x="220.875" y="367.5" class="a15"><tspan x = "220.875" dy="1.0em">body</tspan></text><text dominant-baseline="middle" text-anchor="middle" 
            x="321.25" y="512.5" class="a15"><tspan x = "321.25" dy="1.0em">apply</tspan></text><text dominant-baseline="middle" text-anchor="middle" 
            x="624.625" y="512.5" class="a15"><tspan x = "624.625" dy="1.0em">to</tspan></text><text dominant-baseline="middle" text-anchor="middle" 
            x="425.875" y="222.5" class="a15"><tspan x = "425.875" dy="1.0em">if</tspan></text><text dominant-baseline="middle" text-anchor="middle" 
            x="268.375" y="222.5" class="a15"><tspan x = "268.375" dy="1.0em">then</tspan></text><text dominant-baseline="middle" text-anchor="middle" 
            x="220.875" y="222.5" class="a15"><tspan x = "220.875" dy="1.0em">else</tspan></text><text dominant-baseline="middle" text-anchor="middle" 
            x="164.125" y="512.5" class="a15"><tspan x = "164.125" dy="1.0em">apply</tspan></text><text dominant-baseline="middle" text-anchor="middle" 
            x="109.5625" y="512.5" class="a15"><tspan x = "109.5625" dy="1.0em">to</tspan></text><g >

            <path id="arrow0" d="M 382.375 66.85622317596567 C 404.1413028172049 87.5015146892802, 486.375 135.5, 486.375 165.5 S 486.375 208, 486.375 238 S 486.375 280.5, 486.375 310.5 S 486.375 365, 486.375 395 S 275.06536461140587 445.11295700915275, 245.875 452.0355731225296 " stroke="#000000ff" stroke-width="2"   marker-end="url(#endarrow)" 
            fill="transparent" />

            </g>
<text><textPath href="#arrow0" startOffset="50%" text-anchor="middle" class="a15"></textPath></text><g >

            <path id="arrow1" d="M 220.875 335 C 220.875 365, 220.875 365, 220.875 395 S 220.875 400, 220.875 430 " stroke="#000000ff" stroke-width="2"   marker-end="url(#endarrow)" 
            fill="transparent" />

            </g>
<text><textPath href="#arrow1" startOffset="50%" text-anchor="middle" class="a15"></textPath></text><g >

            <path id="arrow2" d="M 245.875 467.09103840682786 C 267.4380082217942 487.9485712529446, 321.25 510, 321.25 540 S 321.25 545, 321.25 575 " stroke="#000000ff" stroke-width="2"   marker-end="url(#endarrow)" 
            fill="transparent" />

            </g>
<text><textPath href="#arrow2" startOffset="50%" text-anchor="middle" class="a15"></textPath></text><g >

            <path id="arrow3" d="M 624.625 190 C 624.625 220, 624.625 208, 624.625 238 S 624.625 280.5, 624.625 310.5 S 624.625 353, 624.625 383 S 624.625 425.5, 624.625 455.5 S 624.625 510, 624.625 540 S 375.2048997852935 589.3290680276305, 345.7749544478607 595.1495763761957 " stroke="#000000ff" stroke-width="2"   marker-end="url(#endarrow)" 
            fill="transparent" />

            </g>
<text><textPath href="#arrow3" startOffset="50%" text-anchor="middle" class="a15"></textPath></text><g >

            <path id="arrow4" d="M 425.875 190 C 425.875 220, 425.875 220, 425.875 250 S 274.5160100346204 297.17682804115725, 245.875 306.1038961038961 " stroke="#000000ff" stroke-width="2"   marker-end="url(#endarrow)" 
            fill="transparent" />

            </g>
<text><textPath href="#arrow4" startOffset="50%" text-anchor="middle" class="a15"></textPath></text><g >

            <path id="arrow5" d="M 293.08088235294116 190 C 281.65838819531234 217.74034295424147, 283.1005600466468 224.1955253111527, 268.375 250 S 260.9911307657226 262.6580615444756, 245.875 288.57142857142856 " stroke="#000000ff" stroke-width="2"   marker-end="url(#endarrow)" 
            fill="transparent" />

            </g>
<text><textPath href="#arrow5" startOffset="50%" text-anchor="middle" class="a15"></textPath></text><g >

            <path id="arrow6" d="M 199.0070745271432 188.55293668784037 C 209.06556395971504 216.81646071324883, 220.875 220, 220.875 250 S 220.875 255, 220.875 285 " stroke="#000000ff" stroke-width="2"   marker-end="url(#endarrow)" 
            fill="transparent" />

            </g>
<text><textPath href="#arrow6" startOffset="50%" text-anchor="middle" class="a15"></textPath></text><g >

            <path id="arrow7" d="M 195.875 479.01129943502826 C 182.02209807033395 505.62139353721165, 164.125 510, 164.125 540 S 164.125 545, 164.125 575 " stroke="#000000ff" stroke-width="2"   marker-end="url(#endarrow)" 
            fill="transparent" />

            </g>
<text><textPath href="#arrow7" startOffset="50%" text-anchor="middle" class="a15"></textPath></text><g >

            <path id="arrow8" d="M 79.87132352941177 480 C 93.17690212133763 506.88794485144007, 93.14670214958073 515.2341500091735, 109.5625 540 S 127.1216675857799 559.3090502661497, 147.3053034480818 581.5041137573407 " stroke="#000000ff" stroke-width="2"   marker-end="url(#endarrow)" 
            fill="transparent" />

            </g>
<text><textPath href="#arrow8" startOffset="50%" text-anchor="middle" class="a15"></textPath></text><g >

            <path id="arrow9" d="M 382.375 60.397448478900884 C 409.9170941721737 72.29001122252838, 574.1311606843482 143.19696830334956, 601.6732548565219 155.08953104697707 " stroke="#000000ff" stroke-width="2"   marker-end="url(#endarrow)" 
            fill="transparent" />

            </g>
<text><textPath href="#arrow9" startOffset="50%" text-anchor="middle" class="a15"></textPath></text><g >

            <path id="arrow10" d="M 624.625 80 C 624.625 110, 624.625 110, 624.625 140 " stroke="#000000ff" stroke-width="2"   marker-end="url(#endarrow)" 
            fill="transparent" />

            </g>
<text><textPath href="#arrow10" startOffset="50%" text-anchor="middle" class="a15"></textPath></text><g >

            <path id="arrow11" d="M 382.375 79.55357142857143 C 395.9854912200955 106.2884648966162, 400.9224327631582 115.98602864191793, 414.53292398325374 142.7209221099627 " stroke="#000000ff" stroke-width="2"   marker-end="url(#endarrow)" 
            fill="transparent" />

            </g>
<text><textPath href="#arrow11" startOffset="50%" text-anchor="middle" class="a15"></textPath></text><g >

            <path id="arrow12" d="M 270.625 63.19672131147541 C 295.712331021576 79.64743017808263, 379.88155979377734 134.84036707788675, 404.96889081535335 151.29107594449397 " stroke="#000000ff" stroke-width="2"   marker-end="url(#endarrow)" 
            fill="transparent" />

            </g>
<text><textPath href="#arrow12" startOffset="50%" text-anchor="middle" class="a15"></textPath></text><g >

            <path id="arrow13" d="M 164.125 625 C 164.125 655, 164.125 655, 164.125 685 " stroke="#000000ff" stroke-width="2"   marker-end="url(#endarrow)" 
            fill="transparent" />

            </g>
<text><textPath href="#arrow13" startOffset="50%" text-anchor="middle" class="a15"></textPath></text><g >

            <path id="arrow14" d="M 382.375 63.14896755162242 C 407.50626710814316 79.53247796725559, 539.375 135.5, 539.375 165.5 S 539.375 208, 539.375 238 S 539.375 280.5, 539.375 310.5 S 539.375 368, 539.375 398 S 275.3676915931433 447.17783195813996, 245.875 452.671568627451 " stroke="#000000ff" stroke-width="2"  marker-start="url(#startarrow)"  
            fill="transparent" />

            </g>
<text><textPath href="#arrow14" startOffset="50%" text-anchor="middle" class="a15"></textPath></text><g >

            <path id="arrow15" d="M 332.375 63.91410048622366 C 307.9496289526 81.33251744060941, 235.40484692023335 133.06623558362614, 210.97947587283335 150.4846525380119 " stroke="#000000ff" stroke-width="2"   marker-end="url(#endarrow)" 
            fill="transparent" />

            </g>
<text><textPath href="#arrow15" startOffset="50%" text-anchor="middle" class="a15"></textPath></text><g >

            <path id="arrow16" d="M 181.0545630402567 188.09559993590943 C 169.57003868856475 215.81031985900074, 160.375 208, 160.375 238 S 160.375 280.5, 160.375 310.5 S 160.375 353, 160.375 383 S 160.375 425.5, 160.375 455.5 S 242.28989739822126 507.1966781090141, 263.5 528 S 286.8372978298655 557.0958518398323, 305.60786264993885 580.4981144726511 " stroke="#000000ff" stroke-width="2"  marker-start="url(#startarrow)"  
            fill="transparent" />

            </g>
<text><textPath href="#arrow16" startOffset="50%" text-anchor="middle" class="a15"></textPath></text></svg>