<?xml version="1.0" encoding="UTF-8" standalone="no"?><svg width="1041.5" height="1165" viewBox="0 0 1041.5 1165" xmlns="http://www.w3.org/2000/svg">
<defs>
<marker id="startarrow" markerWidth="10" markerHeight="7"
refX="0" refY="3.5" orient="auto">
<polygon points="10 0, 10 7, 0 3.5" fill="context-stroke" />
</marker>
<marker id="endarrow" markerWidth="10" markerHeight="7"
refX="10" refY="3.5" orient="auto">
<polygon points="0 0, 10 3.5, 0 7" fill="context-stroke" />
</marker>

</defs><style>
.a15 { font-size: 15px; font-family: Times, serif; }
</style>
<g >

            <rect x="30" y="940" width="50" height="50" fill="#ff8ca1ff" 
            stroke-width="2" stroke="#f45f74ff" rx="0"  />

            </g>
<text dominant-baseline="middle" text-anchor="middle" 
            x="55" y="950" class="a15"><tspan x = "55" dy="1.0em">function</tspan></text><g >

            <ellipse cx="328.25" cy="200" rx="25" ry="25" fill="#8fd7d7ff" 
            stroke-width="2" stroke="#00b0beff"/>

            </g>
<text dominant-baseline="middle" text-anchor="middle" 
            x="328.25" y="185" class="a15"><tspan x = "328.25" dy="1.0em">.0</tspan></text><g >

            <ellipse cx="848" cy="310" rx="25" ry="25" fill="#ff8ca1ff" 
            stroke-width="2" stroke="#f45f74ff"/>

            </g>
<g >

            <ellipse cx="848" cy="310" rx="29" ry="29" fill="#00000000" 
            stroke-width="2" stroke="#f45f74ff"/>

            </g>
<text dominant-baseline="middle" text-anchor="middle" 
            x="848" y="295" class="a15"><tspan x = "848" dy="1.0em">END</tspan></text><g >

            <rect x="633.25" y="175" width="50" height="50" fill="#ffcd8eff" 
            stroke-width="2" stroke="#ffb255ff" rx="0"  />

            </g>
<text dominant-baseline="middle" text-anchor="middle" 
            x="658.25" y="185" class="a15"><tspan x = "658.25" dy="1.0em">0</tspan></text><g >

            <ellipse cx="155.5" cy="310" rx="25" ry="25" fill="#8fd7d7ff" 
            stroke-width="2" stroke="#00b0beff"/>

            </g>
<text dominant-baseline="middle" text-anchor="middle" 
            x="155.5" y="295" class="a15"><tspan x = "155.5" dy="1.0em">+</tspan></text><g >

            <rect x="413.25" y="30" width="50" height="50" fill="#ff8ca1ff" 
            stroke-width="2" stroke="#f45f74ff" rx="0"  />

            </g>
<text dominant-baseline="middle" text-anchor="middle" 
            x="438.25" y="40" class="a15"><tspan x = "438.25" dy="1.0em">input</tspan></text><g >

            <ellipse cx="770.5" cy="420" rx="25" ry="25" fill="#8fd7d7ff" 
            stroke-width="2" stroke="#00b0beff"/>

            </g>
<text dominant-baseline="middle" text-anchor="middle" 
            x="770.5" y="405" class="a15"><tspan x = "770.5" dy="1.0em">tuple</tspan></text><g >

            <ellipse cx="848" cy="200" rx="25" ry="25" fill="#bdd373ff" 
            stroke-width="2" stroke="#98c127ff"/>

            </g>
<text dominant-baseline="middle" text-anchor="middle" 
            x="848" y="185" class="a15"><tspan x = "848" dy="1.0em">|&gt;</tspan></text><g >

            <rect x="130.5" y="175" width="50" height="50" fill="#ffcd8eff" 
            stroke-width="2" stroke="#ffb255ff" rx="0"  />

            </g>
<text dominant-baseline="middle" text-anchor="middle" 
            x="155.5" y="185" class="a15"><tspan x = "155.5" dy="1.0em">-1</tspan></text><g >

            <rect x="630.5" y="30" width="50" height="50" fill="#ffcd8eff" 
            stroke-width="2" stroke="#ffb255ff" rx="0"  />

            </g>
<text dominant-baseline="middle" text-anchor="middle" 
            x="655.5" y="40" class="a15"><tspan x = "655.5" dy="1.0em">7</tspan></text><g >

            <ellipse cx="493.25" cy="310" rx="25" ry="25" fill="#8fd7d7ff" 
            stroke-width="2" stroke="#00b0beff"/>

            </g>
<text dominant-baseline="middle" text-anchor="middle" 
            x="493.25" y="295" class="a15"><tspan x = "493.25" dy="1.0em">==</tspan></text><g >

            <rect x="214.875" y="795" width="50" height="50" fill="#ff8ca1ff" 
            stroke-width="2" stroke="#f45f74ff" rx="0"  />

            </g>
<text dominant-baseline="middle" text-anchor="middle" 
            x="239.875" y="805" class="a15"><tspan x = "239.875" dy="1.0em">switch</tspan></text><g >

            <ellipse cx="155.5" cy="675" rx="25" ry="25" fill="#bdd373ff" 
            stroke-width="2" stroke="#98c127ff"/>

            </g>
<text dominant-baseline="middle" text-anchor="middle" 
            x="155.5" y="660" class="a15"><tspan x = "155.5" dy="1.0em">|&gt;</tspan></text><g >

            <ellipse cx="438.25" cy="200" rx="25" ry="25" fill="#8fd7d7ff" 
            stroke-width="2" stroke="#00b0beff"/>

            </g>
<text dominant-baseline="middle" text-anchor="middle" 
            x="438.25" y="185" class="a15"><tspan x = "438.25" dy="1.0em">.1</tspan></text><g >

            <rect x="948.5" y="175" width="50" height="50" fill="#ff8ca1ff" 
            stroke-width="2" stroke="#f45f74ff" rx="0"  />

            </g>
<text dominant-baseline="middle" text-anchor="middle" 
            x="973.5" y="185" class="a15"><tspan x = "973.5" dy="1.0em">input</tspan></text><g >

            <ellipse cx="265.5" cy="310" rx="25" ry="25" fill="#8fd7d7ff" 
            stroke-width="2" stroke="#00b0beff"/>

            </g>
<text dominant-baseline="middle" text-anchor="middle" 
            x="265.5" y="295" class="a15"><tspan x = "265.5" dy="1.0em">*</tspan></text><g >

            <ellipse cx="627.125" cy="1110" rx="25" ry="25" fill="#bdd373ff" 
            stroke-width="2" stroke="#98c127ff"/>

            </g>
<text dominant-baseline="middle" text-anchor="middle" 
            x="627.125" y="1095" class="a15"><tspan x = "627.125" dy="1.0em">|&gt;</tspan></text><g >

            <ellipse cx="155.5" cy="530" rx="25" ry="25" fill="#8fd7d7ff" 
            stroke-width="2" stroke="#00b0beff"/>

            </g>
<text dominant-baseline="middle" text-anchor="middle" 
            x="155.5" y="515" class="a15"><tspan x = "155.5" dy="1.0em">tuple</tspan></text><g >

            <rect x="882" y="30" width="50" height="50" fill="#ff8ca1ff" 
            stroke-width="2" stroke="#f45f74ff" rx="0"  />

            </g>
<text dominant-baseline="middle" text-anchor="middle" 
            x="907" y="40" class="a15"><tspan x = "907" dy="1.0em">function</tspan></text><g >

            <rect x="523.25" y="175" width="50" height="50" fill="#ffcd8eff" 
            stroke-width="2" stroke="#ffb255ff" rx="0"  />

            </g>
<text dominant-baseline="middle" text-anchor="middle" 
            x="548.25" y="185" class="a15"><tspan x = "548.25" dy="1.0em">1</tspan></text><text dominant-baseline="middle" text-anchor="middle" 
            x="574.125" y="877.5" class="a15"><tspan x = "574.125" dy="1.0em">input</tspan></text><text dominant-baseline="middle" text-anchor="middle" 
            x="239.875" y="877.5" class="a15"><tspan x = "239.875" dy="1.0em">body</tspan></text><text dominant-baseline="middle" text-anchor="middle" 
            x="383.25" y="112.5" class="a15"><tspan x = "383.25" dy="1.0em">0</tspan></text><text dominant-baseline="middle" text-anchor="middle" 
            x="973.5" y="295" class="a15"><tspan x = "973.5" dy="1.0em">0</tspan></text><text dominant-baseline="middle" text-anchor="middle" 
            x="639.5" y="295" class="a15"><tspan x = "639.5" dy="1.0em">1</tspan></text><text dominant-baseline="middle" text-anchor="middle" 
            x="920.5" y="112.5" class="a15"><tspan x = "920.5" dy="1.0em">apply</tspan></text><text dominant-baseline="middle" text-anchor="middle" 
            x="848" y="112.5" class="a15"><tspan x = "848" dy="1.0em">to</tspan></text><text dominant-baseline="middle" text-anchor="middle" 
            x="493.25" y="732.5" class="a15"><tspan x = "493.25" dy="1.0em">if</tspan></text><text dominant-baseline="middle" text-anchor="middle" 
            x="405.75" y="732.5" class="a15"><tspan x = "405.75" dy="1.0em">then</tspan></text><text dominant-baseline="middle" text-anchor="middle" 
            x="239.875" y="732.5" class="a15"><tspan x = "239.875" dy="1.0em">else</tspan></text><text dominant-baseline="middle" text-anchor="middle" 
            x="111.75" y="877.5" class="a15"><tspan x = "111.75" dy="1.0em">apply</tspan></text><text dominant-baseline="middle" text-anchor="middle" 
            x="155.5" y="587.5" class="a15"><tspan x = "155.5" dy="1.0em">to</tspan></text><text dominant-baseline="middle" text-anchor="middle" 
            x="438.25" y="112.5" class="a15"><tspan x = "438.25" dy="1.0em">1</tspan></text><text dominant-baseline="middle" text-anchor="middle" 
            x="341.0625" y="1022.5" class="a15"><tspan x = "341.0625" dy="1.0em">apply</tspan></text><text dominant-baseline="middle" text-anchor="middle" 
            x="770.5" y="1022.5" class="a15"><tspan x = "770.5" dy="1.0em">to</tspan></text><text dominant-baseline="middle" text-anchor="middle" 
            x="155.5" y="405" class="a15"><tspan x = "155.5" dy="1.0em">0</tspan></text><text dominant-baseline="middle" text-anchor="middle" 
            x="210.5" y="405" class="a15"><tspan x = "210.5" dy="1.0em">1</tspan></text><text dominant-baseline="middle" text-anchor="middle" 
            x="1026.5" y="112.5" class="a15"><tspan x = "1026.5" dy="1.0em">input</tspan></text><text dominant-baseline="middle" text-anchor="middle" 
            x="627.125" y="1022.5" class="a15"><tspan x = "627.125" dy="1.0em">body</tspan></text><g >

            <path id="arrow0" d="M 463.25 58.19614711033275 C 492.3149336131146 65.6278113966983, 736.25 98, 736.25 128 S 736.25 170.5, 736.25 200.5 S 736.25 280.5, 736.25 310.5 S 574.125 390.5, 574.125 420.5 S 574.125 500.5, 574.125 530.5 S 574.125 573, 574.125 603 S 574.125 645.5, 574.125 675.5 S 574.125 718, 574.125 748 S 574.125 790.5, 574.125 820.5 S 574.125 875, 574.125 905 S 109.79179980936128 959.9913486532215, 80 963.519615099926 " stroke="#000000ff" stroke-width="2"   marker-end="url(#endarrow)" 
            fill="transparent" />

            </g>
<text><textPath href="#arrow0" startOffset="50%" text-anchor="middle" class="a15"></textPath></text><g >

            <path id="arrow1" d="M 239.875 845 C 239.875 875, 239.875 875, 239.875 905 S 108.33268575993644 950.7870274367153, 80 960.6490210297317 " stroke="#000000ff" stroke-width="2"   marker-end="url(#endarrow)" 
            fill="transparent" />

            </g>
<text><textPath href="#arrow1" startOffset="50%" text-anchor="middle" class="a15"></textPath></text><g >

            <path id="arrow2" d="M 413.25 80 C 399.83359213500125 106.83281572999748, 399.7636703339133 115.29887966860025, 383.25 140 S 365.414854568454 159.45652228895923, 345.14311571293365 181.57114649498146 " stroke="#000000ff" stroke-width="2"   marker-end="url(#endarrow)" 
            fill="transparent" />

            </g>
<text><textPath href="#arrow2" startOffset="50%" text-anchor="middle" class="a15"></textPath></text><g >

            <path id="arrow3" d="M 848 225 C 848 255, 848 255, 848 285 " stroke="#000000ff" stroke-width="2"   marker-end="url(#endarrow)" 
            fill="transparent" />

            </g>
<text><textPath href="#arrow3" startOffset="50%" text-anchor="middle" class="a15"></textPath></text><g >

            <path id="arrow4" d="M 307.1622334785798 213.42781080958736 C 281.8569136528756 229.5411837810922, 201.89308634712432 280.4588162189078, 176.58776652142015 296.57218919041264 " stroke="#000000ff" stroke-width="2"   marker-end="url(#endarrow)" 
            fill="transparent" />

            </g>
<text><textPath href="#arrow4" startOffset="50%" text-anchor="middle" class="a15"></textPath></text><g >

            <path id="arrow5" d="M 155.5 225 C 155.5 255, 155.5 255, 155.5 285 " stroke="#000000ff" stroke-width="2"   marker-end="url(#endarrow)" 
            fill="transparent" />

            </g>
<text><textPath href="#arrow5" startOffset="50%" text-anchor="middle" class="a15"></textPath></text><g >

            <path id="arrow6" d="M 413.25 57.46122724207687 C 383.8151527216521 63.25689508110424, 55 98, 55 128 S 55 170.5, 55 200.5 S 55 280.5, 55 310.5 S 55 390.5, 55 420.5 S 55 500.5, 55 530.5 S 55 573, 55 603 S 55 645.5, 55 675.5 S 55 718, 55 748 S 55 790.5, 55 820.5 S 55 863, 55 893 S 55 910, 55 940 " stroke="#000000ff" stroke-width="2"  marker-start="url(#startarrow)"  
            fill="transparent" />

            </g>
<text><textPath href="#arrow6" startOffset="50%" text-anchor="middle" class="a15"></textPath></text><g >

            <path id="arrow7" d="M 973.5 225 C 973.5 255, 973.5 292.5, 973.5 322.5 S 820.078050107229 396.1878823376609, 793.0354773214677 409.17631015348223 " stroke="#000000ff" stroke-width="2"   marker-end="url(#endarrow)" 
            fill="transparent" />

            </g>
<text><textPath href="#arrow7" startOffset="50%" text-anchor="middle" class="a15"></textPath></text><g >

            <path id="arrow8" d="M 573.25 219.44444444444446 C 589.472727739405 244.67979870574106, 619.9152935137932 300.40390440710166, 639.5 322.5 S 726.3790485783852 387.1618873007065, 750.4450220810842 405.07358513668476 " stroke="#000000ff" stroke-width="2"   marker-end="url(#endarrow)" 
            fill="transparent" />

            </g>
<text><textPath href="#arrow8" startOffset="50%" text-anchor="middle" class="a15"></textPath></text><g >

            <path id="arrow9" d="M 910.9705882352941 80 C 915.6763129995273 109.62863740443157, 926.7072059747734 114.49118194077947, 920.5 140 S 890.371687661858 164.93377572811755, 867.2598580281173 184.06080714914435 " stroke="#000000ff" stroke-width="2"   marker-end="url(#endarrow)" 
            fill="transparent" />

            </g>
<text><textPath href="#arrow9" startOffset="50%" text-anchor="middle" class="a15"></textPath></text><g >

            <path id="arrow10" d="M 680.5 60.90277777777778 C 707.6274594023797 73.71296694001265, 848 110, 848 140 S 848 145, 848 175 " stroke="#000000ff" stroke-width="2"   marker-end="url(#endarrow)" 
            fill="transparent" />

            </g>
<text><textPath href="#arrow10" startOffset="50%" text-anchor="middle" class="a15"></textPath></text><g >

            <path id="arrow11" d="M 349.0512573584461 213.86750490563074 C 374.0127661885814 230.5085107923876, 447.4872338114186 279.4914892076124, 472.4487426415539 296.1324950943693 " stroke="#000000ff" stroke-width="2"   marker-end="url(#endarrow)" 
            fill="transparent" />

            </g>
<text><textPath href="#arrow11" startOffset="50%" text-anchor="middle" class="a15"></textPath></text><g >

            <path id="arrow12" d="M 633.25 209.01639344262296 C 608.9191097157171 226.56654381161385, 537.8566321878519 277.8247243235167, 513.525741903569 295.3748746925076 " stroke="#000000ff" stroke-width="2"   marker-end="url(#endarrow)" 
            fill="transparent" />

            </g>
<text><textPath href="#arrow12" startOffset="50%" text-anchor="middle" class="a15"></textPath></text><g >

            <path id="arrow13" d="M 493.25 335 C 493.25 365, 493.25 390.5, 493.25 420.5 S 493.25 500.5, 493.25 530.5 S 493.25 573, 493.25 603 S 493.25 645.5, 493.25 675.5 S 493.25 730, 493.25 760 S 293.98548474756416 809.6351672657859, 264.875 816.8863518422419 " stroke="#000000ff" stroke-width="2"   marker-end="url(#endarrow)" 
            fill="transparent" />

            </g>
<text><textPath href="#arrow13" startOffset="50%" text-anchor="middle" class="a15"></textPath></text><g >

            <path id="arrow14" d="M 523.25 210.625 C 500.39182046721623 230.0544526028662, 405.75 280.5, 405.75 310.5 S 405.75 390.5, 405.75 420.5 S 405.75 500.5, 405.75 530.5 S 405.75 573, 405.75 603 S 405.75 645.5, 405.75 675.5 S 405.75 730, 405.75 760 S 292.8132911069117 804.1806196158781, 264.875 815.1100244498778 " stroke="#000000ff" stroke-width="2"   marker-end="url(#endarrow)" 
            fill="transparent" />

            </g>
<text><textPath href="#arrow14" startOffset="50%" text-anchor="middle" class="a15"></textPath></text><g >

            <path id="arrow15" d="M 173.11231836925265 692.7427799868027 C 194.24710041235585 714.0341159709659, 239.875 730, 239.875 760 S 239.875 765, 239.875 795 " stroke="#000000ff" stroke-width="2"   marker-end="url(#endarrow)" 
            fill="transparent" />

            </g>
<text><textPath href="#arrow15" startOffset="50%" text-anchor="middle" class="a15"></textPath></text><g >

            <path id="arrow16" d="M 142.6484074041454 696.4438002170831 C 127.22649628911985 722.1763604775829, 111.75 718, 111.75 748 S 111.75 790.5, 111.75 820.5 S 111.75 875, 111.75 905 S 97.80626435551693 923.9067601959092, 80 948.0508474576271 " stroke="#000000ff" stroke-width="2"  marker-start="url(#startarrow)"  
            fill="transparent" />

            </g>
<text><textPath href="#arrow16" startOffset="50%" text-anchor="middle" class="a15"></textPath></text><g >

            <path id="arrow17" d="M 155.5 555 C 155.5 585, 155.5 585, 155.5 615 S 155.5 620, 155.5 650 " stroke="#000000ff" stroke-width="2"   marker-end="url(#endarrow)" 
            fill="transparent" />

            </g>
<text><textPath href="#arrow17" startOffset="50%" text-anchor="middle" class="a15"></textPath></text><g >

            <path id="arrow18" d="M 438.25 80 C 438.25 110, 438.25 110, 438.25 140 S 438.25 145, 438.25 175 " stroke="#000000ff" stroke-width="2"   marker-end="url(#endarrow)" 
            fill="transparent" />

            </g>
<text><textPath href="#arrow18" startOffset="50%" text-anchor="middle" class="a15"></textPath></text><g >

            <path id="arrow19" d="M 932 69.58333333333333 C 951.523741203679 92.36103140429222, 973.5 88, 973.5 118 S 973.5 145, 973.5 175 " stroke="#000000ff" stroke-width="2"   marker-end="url(#endarrow)" 
            fill="transparent" />

            </g>
<text><textPath href="#arrow19" startOffset="50%" text-anchor="middle" class="a15"></textPath></text><g >

            <path id="arrow20" d="M 315.8624746030252 221.71518396282437 C 300.9974441266554 247.7734047182136, 292.7525558733446 262.2265952817864, 277.8875253969748 288.28481603717563 " stroke="#000000ff" stroke-width="2"   marker-end="url(#endarrow)" 
            fill="transparent" />

            </g>
<text><textPath href="#arrow20" startOffset="50%" text-anchor="middle" class="a15"></textPath></text><g >

            <path id="arrow21" d="M 417.1622334785798 213.42781080958736 C 391.8569136528756 229.5411837810922, 311.8930863471244 280.4588162189078, 286.5877665214202 296.57218919041264 " stroke="#000000ff" stroke-width="2"   marker-end="url(#endarrow)" 
            fill="transparent" />

            </g>
<text><textPath href="#arrow21" startOffset="50%" text-anchor="middle" class="a15"></textPath></text><g >

            <path id="arrow22" d="M 80 968.8839387708476 C 108.6489195685756 977.7855907272705, 312.0693895478341 1042.4241482179007, 341.0625 1050 S 573.2962917462364 1098.70973128171, 602.6574053391984 1104.8680596735046 " stroke="#000000ff" stroke-width="2"   marker-end="url(#endarrow)" 
            fill="transparent" />

            </g>
<text><textPath href="#arrow22" startOffset="50%" text-anchor="middle" class="a15"></textPath></text><g >

            <path id="arrow23" d="M 770.5 445 C 770.5 475, 770.5 500.5, 770.5 530.5 S 770.5 573, 770.5 603 S 770.5 645.5, 770.5 675.5 S 770.5 718, 770.5 748 S 770.5 790.5, 770.5 820.5 S 770.5 863, 770.5 893 S 770.5 935.5, 770.5 965.5 S 770.5 1020, 770.5 1050 S 677.8614525555798 1088.7676571694174, 650.1870238889 1100.3489350770078 " stroke="#000000ff" stroke-width="2"   marker-end="url(#endarrow)" 
            fill="transparent" />

            </g>
<text><textPath href="#arrow23" startOffset="50%" text-anchor="middle" class="a15"></textPath></text><g >

            <path id="arrow24" d="M 155.5 335 C 155.5 365, 155.5 402.5, 155.5 432.5 S 155.5 475, 155.5 505 " stroke="#000000ff" stroke-width="2"   marker-end="url(#endarrow)" 
            fill="transparent" />

            </g>
<text><textPath href="#arrow24" startOffset="50%" text-anchor="middle" class="a15"></textPath></text><g >

            <path id="arrow25" d="M 255.26023992915398 332.80673833961157 C 242.97252784413877 360.17482434714543, 223.9989185633716 405.7438254894303, 210.5 432.5 S 182.52266528125497 482.09618427413886, 167.7830296732977 508.22553830642676 " stroke="#000000ff" stroke-width="2"   marker-end="url(#endarrow)" 
            fill="transparent" />

            </g>
<text><textPath href="#arrow25" startOffset="50%" text-anchor="middle" class="a15"></textPath></text><g >

            <path id="arrow26" d="M 932 64.92990654205607 C 955.4901805667104 83.59033035673252, 1029.0727587831282 119.04070777504506, 1026.5 140 S 1015.2841856500319 156.61602125921203, 998.5 181.48148148148147 " stroke="#000000ff" stroke-width="2"  marker-start="url(#startarrow)"  
            fill="transparent" />

            </g>
<text><textPath href="#arrow26" startOffset="50%" text-anchor="middle" class="a15"></textPath></text><g >

            <path id="arrow27" d="M 882 62.82422293676313 C 856.5707750492506 78.74133694666412, 777.875 98, 777.875 128 S 777.875 170.5, 777.875 200.5 S 777.875 280.5, 777.875 310.5 S 627.125 390.5, 627.125 420.5 S 627.125 500.5, 627.125 530.5 S 627.125 573, 627.125 603 S 627.125 645.5, 627.125 675.5 S 627.125 718, 627.125 748 S 627.125 790.5, 627.125 820.5 S 627.125 863, 627.125 893 S 627.125 935.5, 627.125 965.5 S 627.125 1020, 627.125 1050 S 627.125 1055, 627.125 1085 " stroke="#000000ff" stroke-width="2"  marker-start="url(#startarrow)"  
            fill="transparent" />

            </g>
<text><textPath href="#arrow27" startOffset="50%" text-anchor="middle" class="a15"></textPath></text></svg>