<?xml version="1.0" encoding="UTF-8" standalone="no"?><svg width="883.75" height="1208" viewBox="0 0 883.75 1208" xmlns="http://www.w3.org/2000/svg">
<defs>
<marker id="startarrow" markerWidth="10" markerHeight="7"
refX="0" refY="3.5" orient="auto">
<polygon points="10 0, 10 7, 0 3.5" fill="context-stroke" />
</marker>
<marker id="endarrow" markerWidth="10" markerHeight="7"
refX="10" refY="3.5" orient="auto">
<polygon points="0 0, 10 3.5, 0 7" fill="context-stroke" />
</marker>

</defs><style>
.a15 { font-size: 15px; font-family: Times, serif; }
</style>
<g >

            <rect x="282.5" y="575" width="50" height="50" fill="#ff8ca1ff" 
            stroke-width="2" stroke="#f45f74ff" rx="0"  />

            </g>
<text dominant-baseline="middle" text-anchor="middle" 
            x="307.5" y="585" class="a15"><tspan x = "307.5" dy="1.0em">function</tspan></text><g >

            <ellipse cx="743.75" cy="200" rx="25" ry="25" fill="#8fd7d7ff" 
            stroke-width="2" stroke="#00b0beff"/>

            </g>
<text dominant-baseline="middle" text-anchor="middle" 
            x="743.75" y="185" class="a15"><tspan x = "743.75" dy="1.0em">.0</tspan></text><g >

            <rect x="75.5" y="865" width="50" height="50" fill="#ff8ca1ff" 
            stroke-width="2" stroke="#f45f74ff" rx="0"  />

            </g>
<text dominant-baseline="middle" text-anchor="middle" 
            x="100.5" y="875" class="a15"><tspan x = "100.5" dy="1.0em">function</tspan></text><g >

            <ellipse cx="633.75" cy="310" rx="25" ry="25" fill="#8fd7d7ff" 
            stroke-width="2" stroke="#00b0beff"/>

            </g>
<text dominant-baseline="middle" text-anchor="middle" 
            x="633.75" y="295" class="a15"><tspan x = "633.75" dy="1.0em">*</tspan></text><g >

            <ellipse cx="798.75" cy="310" rx="25" ry="25" fill="#8fd7d7ff" 
            stroke-width="2" stroke="#00b0beff"/>

            </g>
<text dominant-baseline="middle" text-anchor="middle" 
            x="798.75" y="295" class="a15"><tspan x = "798.75" dy="1.0em">+</tspan></text><g >

            <rect x="828.75" y="175" width="50" height="50" fill="#ffcd8eff" 
            stroke-width="2" stroke="#ffb255ff" rx="0"  />

            </g>
<text dominant-baseline="middle" text-anchor="middle" 
            x="853.75" y="185" class="a15"><tspan x = "853.75" dy="1.0em">-1</tspan></text><g >

            <rect x="552" y="30" width="50" height="50" fill="#ff8ca1ff" 
            stroke-width="2" stroke="#f45f74ff" rx="0"  />

            </g>
<text dominant-baseline="middle" text-anchor="middle" 
            x="577" y="40" class="a15"><tspan x = "577" dy="1.0em">input</tspan></text><g >

            <rect x="507.125" y="865" width="50" height="50" fill="#ffcd8eff" 
            stroke-width="2" stroke="#ffb255ff" rx="0"  />

            </g>
<text dominant-baseline="middle" text-anchor="middle" 
            x="532.125" y="875" class="a15"><tspan x = "532.125" dy="1.0em">7</tspan></text><g >

            <ellipse cx="161" cy="745" rx="25" ry="25" fill="#bdd373ff" 
            stroke-width="2" stroke="#98c127ff"/>

            </g>
<text dominant-baseline="middle" text-anchor="middle" 
            x="161" y="730" class="a15"><tspan x = "161" dy="1.0em">|&gt;</tspan></text><g >

            <ellipse cx="532.125" cy="1145" rx="25" ry="25" fill="#ff8ca1ff" 
            stroke-width="2" stroke="#f45f74ff"/>

            </g>
<g >

            <ellipse cx="532.125" cy="1145" rx="29" ry="29" fill="#00000000" 
            stroke-width="2" stroke="#f45f74ff"/>

            </g>
<text dominant-baseline="middle" text-anchor="middle" 
            x="532.125" y="1130" class="a15"><tspan x = "532.125" dy="1.0em">END</tspan></text><g >

            <ellipse cx="376.5" cy="745" rx="25" ry="25" fill="#bdd373ff" 
            stroke-width="2" stroke="#98c127ff"/>

            </g>
<text dominant-baseline="middle" text-anchor="middle" 
            x="376.5" y="730" class="a15"><tspan x = "376.5" dy="1.0em">|&gt;</tspan></text><g >

            <ellipse cx="523.75" cy="310" rx="25" ry="25" fill="#8fd7d7ff" 
            stroke-width="2" stroke="#00b0beff"/>

            </g>
<text dominant-baseline="middle" text-anchor="middle" 
            x="523.75" y="295" class="a15"><tspan x = "523.75" dy="1.0em">==</tspan></text><g >

            <rect x="411.25" y="430" width="50" height="50" fill="#ff8ca1ff" 
            stroke-width="2" stroke="#f45f74ff" rx="0"  />

            </g>
<text dominant-baseline="middle" text-anchor="middle" 
            x="436.25" y="440" class="a15"><tspan x = "436.25" dy="1.0em">switch</tspan></text><g >

            <rect x="608.75" y="175" width="50" height="50" fill="#ffcd8eff" 
            stroke-width="2" stroke="#ffb255ff" rx="0"  />

            </g>
<text dominant-baseline="middle" text-anchor="middle" 
            x="633.75" y="185" class="a15"><tspan x = "633.75" dy="1.0em">0</tspan></text><g >

            <ellipse cx="633.75" cy="455" rx="25" ry="25" fill="#8fd7d7ff" 
            stroke-width="2" stroke="#00b0beff"/>

            </g>
<text dominant-baseline="middle" text-anchor="middle" 
            x="633.75" y="440" class="a15"><tspan x = "633.75" dy="1.0em">tuple</tspan></text><g >

            <rect x="79.25" y="30" width="50" height="50" fill="#ff8ca1ff" 
            stroke-width="2" stroke="#f45f74ff" rx="0"  />

            </g>
<text dominant-baseline="middle" text-anchor="middle" 
            x="104.25" y="40" class="a15"><tspan x = "104.25" dy="1.0em">input</tspan></text><g >

            <ellipse cx="161" cy="200" rx="25" ry="25" fill="#8fd7d7ff" 
            stroke-width="2" stroke="#00b0beff"/>

            </g>
<text dominant-baseline="middle" text-anchor="middle" 
            x="161" y="185" class="a15"><tspan x = "161" dy="1.0em">tuple</tspan></text><g >

            <ellipse cx="532.125" cy="1035" rx="25" ry="25" fill="#bdd373ff" 
            stroke-width="2" stroke="#98c127ff"/>

            </g>
<text dominant-baseline="middle" text-anchor="middle" 
            x="532.125" y="1020" class="a15"><tspan x = "532.125" dy="1.0em">|&gt;</tspan></text><g >

            <rect x="212.25" y="30" width="50" height="50" fill="#ffcd8eff" 
            stroke-width="2" stroke="#ffb255ff" rx="0"  />

            </g>
<text dominant-baseline="middle" text-anchor="middle" 
            x="237.25" y="40" class="a15"><tspan x = "237.25" dy="1.0em">1</tspan></text><g >

            <ellipse cx="523.75" cy="200" rx="25" ry="25" fill="#8fd7d7ff" 
            stroke-width="2" stroke="#00b0beff"/>

            </g>
<text dominant-baseline="middle" text-anchor="middle" 
            x="523.75" y="185" class="a15"><tspan x = "523.75" dy="1.0em">.1</tspan></text><text dominant-baseline="middle" text-anchor="middle" 
            x="307.5" y="512.5" class="a15"><tspan x = "307.5" dy="1.0em">input</tspan></text><text dominant-baseline="middle" text-anchor="middle" 
            x="413.5" y="512.5" class="a15"><tspan x = "413.5" dy="1.0em">body</tspan></text><text dominant-baseline="middle" text-anchor="middle" 
            x="660.375" y="112.5" class="a15"><tspan x = "660.375" dy="1.0em">0</tspan></text><text dominant-baseline="middle" text-anchor="middle" 
            x="47.5" y="802.5" class="a15"><tspan x = "47.5" dy="1.0em">input</tspan></text><text dominant-baseline="middle" text-anchor="middle" 
            x="161" y="802.5" class="a15"><tspan x = "161" dy="1.0em">body</tspan></text><text dominant-baseline="middle" text-anchor="middle" 
            x="260" y="657.5" class="a15"><tspan x = "260" dy="1.0em">apply</tspan></text><text dominant-baseline="middle" text-anchor="middle" 
            x="376.5" y="657.5" class="a15"><tspan x = "376.5" dy="1.0em">apply</tspan></text><text dominant-baseline="middle" text-anchor="middle" 
            x="633.75" y="657.5" class="a15"><tspan x = "633.75" dy="1.0em">to</tspan></text><text dominant-baseline="middle" text-anchor="middle" 
            x="480" y="367.5" class="a15"><tspan x = "480" dy="1.0em">if</tspan></text><text dominant-baseline="middle" text-anchor="middle" 
            x="436.25" y="367.5" class="a15"><tspan x = "436.25" dy="1.0em">then</tspan></text><text dominant-baseline="middle" text-anchor="middle" 
            x="492.25" y="657.5" class="a15"><tspan x = "492.25" dy="1.0em">else</tspan></text><text dominant-baseline="middle" text-anchor="middle" 
            x="716.25" y="367.5" class="a15"><tspan x = "716.25" dy="1.0em">0</tspan></text><text dominant-baseline="middle" text-anchor="middle" 
            x="633.75" y="367.5" class="a15"><tspan x = "633.75" dy="1.0em">1</tspan></text><text dominant-baseline="middle" text-anchor="middle" 
            x="132.625" y="112.5" class="a15"><tspan x = "132.625" dy="1.0em">0</tspan></text><text dominant-baseline="middle" text-anchor="middle" 
            x="199.125" y="112.5" class="a15"><tspan x = "199.125" dy="1.0em">1</tspan></text><text dominant-baseline="middle" text-anchor="middle" 
            x="316.3125" y="947.5" class="a15"><tspan x = "316.3125" dy="1.0em">apply</tspan></text><text dominant-baseline="middle" text-anchor="middle" 
            x="532.125" y="947.5" class="a15"><tspan x = "532.125" dy="1.0em">to</tspan></text><text dominant-baseline="middle" text-anchor="middle" 
            x="550.375" y="112.5" class="a15"><tspan x = "550.375" dy="1.0em">1</tspan></text><text dominant-baseline="middle" text-anchor="middle" 
            x="161" y="585" class="a15"><tspan x = "161" dy="1.0em">to</tspan></text><g >

            <path id="arrow0" d="M 552 58.55058365758755 C 523.1416038668921 66.74771563313962, 307.5 98, 307.5 128 S 307.5 170.5, 307.5 200.5 S 307.5 280.5, 307.5 310.5 S 307.5 353, 307.5 383 S 307.5 425.5, 307.5 455.5 S 307.5 510, 307.5 540 S 307.5 545, 307.5 575 " stroke="#000000ff" stroke-width="2"   marker-end="url(#endarrow)" 
            fill="transparent" />

            </g>
<text><textPath href="#arrow0" startOffset="50%" text-anchor="middle" class="a15"></textPath></text><g >

            <path id="arrow1" d="M 429.55882352941177 480 C 421.8024217767648 508.9799625923074, 427.4540148017815 515.8163505278691, 413.5 540 S 357.74850662986677 575.7763593819037, 332.5 591.9786096256685 " stroke="#000000ff" stroke-width="2"   marker-end="url(#endarrow)" 
            fill="transparent" />

            </g>
<text><textPath href="#arrow1" startOffset="50%" text-anchor="middle" class="a15"></textPath></text><g >

            <path id="arrow2" d="M 602 69.99118165784833 C 621.2121968807663 93.03226433672155, 638.7470818092638 119.55317320055224, 660.375 140 S 699.1079956239901 167.8738199393032, 723.4581798290864 185.39719088150144 " stroke="#000000ff" stroke-width="2"   marker-end="url(#endarrow)" 
            fill="transparent" />

            </g>
<text><textPath href="#arrow2" startOffset="50%" text-anchor="middle" class="a15"></textPath></text><g >

            <path id="arrow3" d="M 79.25 75.62146892655367 C 63.69900139024 101.27622369519729, 47.5 98, 47.5 128 S 47.5 170.5, 47.5 200.5 S 47.5 280.5, 47.5 310.5 S 47.5 353, 47.5 383 S 47.5 425.5, 47.5 455.5 S 47.5 498, 47.5 528 S 47.5 570.5, 47.5 600.5 S 47.5 643, 47.5 673 S 47.5 715.5, 47.5 745.5 S 47.5 800, 47.5 830 S 58.715814349968134 846.6160212592121, 75.5 871.4814814814815 " stroke="#000000ff" stroke-width="2"   marker-end="url(#endarrow)" 
            fill="transparent" />

            </g>
<text><textPath href="#arrow3" startOffset="50%" text-anchor="middle" class="a15"></textPath></text><g >

            <path id="arrow4" d="M 161 770 C 161 800, 161 800, 161 830 S 144.24085142663273 850.9489357167091, 125.5 874.375 " stroke="#000000ff" stroke-width="2"   marker-end="url(#endarrow)" 
            fill="transparent" />

            </g>
<text><textPath href="#arrow4" startOffset="50%" text-anchor="middle" class="a15"></textPath></text><g >

            <path id="arrow5" d="M 726.0723304703363 217.6776695296637 C 704.8591270347399 238.89087296526012, 672.6408729652601 271.10912703473986, 651.4276695296637 292.3223304703363 " stroke="#000000ff" stroke-width="2"   marker-end="url(#endarrow)" 
            fill="transparent" />

            </g>
<text><textPath href="#arrow5" startOffset="50%" text-anchor="middle" class="a15"></textPath></text><g >

            <path id="arrow6" d="M 541.4276695296637 217.6776695296637 C 562.6408729652601 238.89087296526012, 594.8591270347399 271.10912703473986, 616.0723304703363 292.3223304703363 " stroke="#000000ff" stroke-width="2"   marker-end="url(#endarrow)" 
            fill="transparent" />

            </g>
<text><textPath href="#arrow6" startOffset="50%" text-anchor="middle" class="a15"></textPath></text><g >

            <path id="arrow7" d="M 754.9303398874989 222.3606797749979 C 768.3467477524977 249.19349550499535, 774.1532522475023 260.8065044950046, 787.5696601125011 287.6393202250021 " stroke="#000000ff" stroke-width="2"   marker-end="url(#endarrow)" 
            fill="transparent" />

            </g>
<text><textPath href="#arrow7" startOffset="50%" text-anchor="middle" class="a15"></textPath></text><g >

            <path id="arrow8" d="M 831.5909090909091 225 C 820.7789307148443 252.9839440321679, 818.5719603561189 258.69610260769224, 807.759981980054 286.6800466398601 " stroke="#000000ff" stroke-width="2"   marker-end="url(#endarrow)" 
            fill="transparent" />

            </g>
<text><textPath href="#arrow8" startOffset="50%" text-anchor="middle" class="a15"></textPath></text><g >

            <path id="arrow9" d="M 552 59.47303921568627 C 523.7540132893677 69.58067171507919, 360.5 98, 360.5 128 S 360.5 170.5, 360.5 200.5 S 360.5 280.5, 360.5 310.5 S 360.5 353, 360.5 383 S 360.5 425.5, 360.5 455.5 S 360.5 498, 360.5 528 S 347.2078371889768 551.6305116640414, 332.5 577.7777777777778 " stroke="#000000ff" stroke-width="2"  marker-start="url(#startarrow)"  
            fill="transparent" />

            </g>
<text><textPath href="#arrow9" startOffset="50%" text-anchor="middle" class="a15"></textPath></text><g >

            <path id="arrow10" d="M 284.70588235294116 625 C 273.28338819531234 652.7403429542414, 276.5349820194606 661.638628412682, 260 685 S 208.03588073547098 716.4934056148661, 182.37994578885045 732.0424570976664 " stroke="#000000ff" stroke-width="2"   marker-end="url(#endarrow)" 
            fill="transparent" />

            </g>
<text><textPath href="#arrow10" startOffset="50%" text-anchor="middle" class="a15"></textPath></text><g >

            <path id="arrow11" d="M 161 225 C 161 255, 161 280.5, 161 310.5 S 161 353, 161 383 S 161 425.5, 161 455.5 S 161 498, 161 528 S 161 582.5, 161 612.5 S 161 643, 161 673 S 161 690, 161 720 " stroke="#000000ff" stroke-width="2"   marker-end="url(#endarrow)" 
            fill="transparent" />

            </g>
<text><textPath href="#arrow11" startOffset="50%" text-anchor="middle" class="a15"></textPath></text><g >

            <path id="arrow12" d="M 532.125 1060 C 532.125 1090, 532.125 1090, 532.125 1120 " stroke="#000000ff" stroke-width="2"   marker-end="url(#endarrow)" 
            fill="transparent" />

            </g>
<text><textPath href="#arrow12" startOffset="50%" text-anchor="middle" class="a15"></textPath></text><g >

            <path id="arrow13" d="M 332.5 618.8053097345132 C 349.10707546446673 643.7894055660119, 376.5 655, 376.5 685 S 376.5 690, 376.5 720 " stroke="#000000ff" stroke-width="2"   marker-end="url(#endarrow)" 
            fill="transparent" />

            </g>
<text><textPath href="#arrow13" startOffset="50%" text-anchor="middle" class="a15"></textPath></text><g >

            <path id="arrow14" d="M 633.75 480 C 633.75 510, 633.75 498, 633.75 528 S 633.75 570.5, 633.75 600.5 S 633.75 655, 633.75 685 S 430.0624181634986 732.5073077169682, 400.8465537106812 739.3215035077128 " stroke="#000000ff" stroke-width="2"   marker-end="url(#endarrow)" 
            fill="transparent" />

            </g>
<text><textPath href="#arrow14" startOffset="50%" text-anchor="middle" class="a15"></textPath></text><g >

            <path id="arrow15" d="M 721.389320225002 211.18033988749895 C 694.5565044950046 224.5967477524977, 572.9434955049954 285.4032522475023, 546.110679774998 298.819660112501 " stroke="#000000ff" stroke-width="2"   marker-end="url(#endarrow)" 
            fill="transparent" />

            </g>
<text><textPath href="#arrow15" startOffset="50%" text-anchor="middle" class="a15"></textPath></text><g >

            <path id="arrow16" d="M 608.75 214.1025641025641 C 588.8507745705244 236.5529722794083, 560.2319132873719 268.84091834245226, 540.3326878578963 291.2913265192965 " stroke="#000000ff" stroke-width="2"   marker-end="url(#endarrow)" 
            fill="transparent" />

            </g>
<text><textPath href="#arrow16" startOffset="50%" text-anchor="middle" class="a15"></textPath></text><g >

            <path id="arrow17" d="M 512.3089142045656 332.22839525970124 C 498.5796112500442 358.9024695713427, 495.65240784865637 369.5121167040561, 480 395 S 475.10803256510906 404.3925774749906, 461.25 431 " stroke="#000000ff" stroke-width="2"   marker-end="url(#endarrow)" 
            fill="transparent" />

            </g>
<text><textPath href="#arrow17" startOffset="50%" text-anchor="middle" class="a15"></textPath></text><g >

            <path id="arrow18" d="M 508.2301549519541 219.59934717496083 C 489.606340894299 243.11856378491382, 436.25 280.5, 436.25 310.5 S 436.25 365, 436.25 395 S 436.25 400, 436.25 430 " stroke="#000000ff" stroke-width="2"   marker-end="url(#endarrow)" 
            fill="transparent" />

            </g>
<text><textPath href="#arrow18" startOffset="50%" text-anchor="middle" class="a15"></textPath></text><g >

            <path id="arrow19" d="M 461.25 475.97701149425285 C 476.60692705542914 501.74840632290403, 492.25 498, 492.25 528 S 492.25 570.5, 492.25 600.5 S 492.25 655, 492.25 685 S 425.3296912561011 719.6887129558007, 398.6953142073187 733.4948695253639 " stroke="#000000ff" stroke-width="2"  marker-start="url(#startarrow)"  
            fill="transparent" />

            </g>
<text><textPath href="#arrow19" startOffset="50%" text-anchor="middle" class="a15"></textPath></text><g >

            <path id="arrow20" d="M 781.3381155707835 327.9395172907079 C 760.4438542557237 349.46693803955736, 738.754450221366 375.3287311653737, 716.25 395 S 678.2304846366753 422.6505566278725, 653.9684021075797 440.29570755812387 " stroke="#000000ff" stroke-width="2"   marker-end="url(#endarrow)" 
            fill="transparent" />

            </g>
<text><textPath href="#arrow20" startOffset="50%" text-anchor="middle" class="a15"></textPath></text><g >

            <path id="arrow21" d="M 633.75 335 C 633.75 365, 633.75 365, 633.75 395 S 633.75 400, 633.75 430 " stroke="#000000ff" stroke-width="2"   marker-end="url(#endarrow)" 
            fill="transparent" />

            </g>
<text><textPath href="#arrow21" startOffset="50%" text-anchor="middle" class="a15"></textPath></text><g >

            <path id="arrow22" d="M 102.96575342465754 80 C 101.42668688906518 109.96049522619778, 100.5 98, 100.5 128 S 100.5 170.5, 100.5 200.5 S 100.5 280.5, 100.5 310.5 S 100.5 353, 100.5 383 S 100.5 425.5, 100.5 455.5 S 100.5 498, 100.5 528 S 100.5 570.5, 100.5 600.5 S 100.5 643, 100.5 673 S 100.5 715.5, 100.5 745.5 S 100.5 788, 100.5 818 S 100.5 835, 100.5 865 " stroke="#000000ff" stroke-width="2"  marker-start="url(#startarrow)"  
            fill="transparent" />

            </g>
<text><textPath href="#arrow22" startOffset="50%" text-anchor="middle" class="a15"></textPath></text><g >

            <path id="arrow23" d="M 121.41911764705883 80 C 126.92682485068887 109.49008581471207, 123.61152905424785 111.64525937741129, 132.625 140 S 137.48642461942964 150.2796643935076, 150.31201119064983 177.39984745159435 " stroke="#000000ff" stroke-width="2"   marker-end="url(#endarrow)" 
            fill="transparent" />

            </g>
<text><textPath href="#arrow23" startOffset="50%" text-anchor="middle" class="a15"></textPath></text><g >

            <path id="arrow24" d="M 217.21323529411765 80 C 208.55405435814941 108.72313676321171, 211.26530205030087 112.87097827606934, 199.125 140 S 190.49685650297738 153.57871763465855, 174.4076620468079 178.89941710666298 " stroke="#000000ff" stroke-width="2"   marker-end="url(#endarrow)" 
            fill="transparent" />

            </g>
<text><textPath href="#arrow24" startOffset="50%" text-anchor="middle" class="a15"></textPath></text><g >

            <path id="arrow25" d="M 125.5 895.2259452812788 C 153.17844241785644 906.7976273250183, 288.04584211087507 965.125758149231, 316.3125 975 S 479.13481417913556 1020.2677154972403, 508.03855189960706 1028.3035070442002 " stroke="#000000ff" stroke-width="2"   marker-end="url(#endarrow)" 
            fill="transparent" />

            </g>
<text><textPath href="#arrow25" startOffset="50%" text-anchor="middle" class="a15"></textPath></text><g >

            <path id="arrow26" d="M 532.125 915 C 532.125 945, 532.125 945, 532.125 975 S 532.125 980, 532.125 1010 " stroke="#000000ff" stroke-width="2"   marker-end="url(#endarrow)" 
            fill="transparent" />

            </g>
<text><textPath href="#arrow26" startOffset="50%" text-anchor="middle" class="a15"></textPath></text><g >

            <path id="arrow27" d="M 560.3455882352941 80 C 555.4277340421231 109.59416682616204, 558.7799027083108 111.45081210027409, 550.375 140 S 546.0584589594221 149.7274164294714, 533.8902086179191 177.14882564975971 " stroke="#000000ff" stroke-width="2"   marker-end="url(#endarrow)" 
            fill="transparent" />

            </g>
<text><textPath href="#arrow27" startOffset="50%" text-anchor="middle" class="a15"></textPath></text></svg>