<?xml version="1.0" encoding="UTF-8" standalone="no"?><svg width="640.5" height="773" viewBox="0 0 640.5 773" xmlns="http://www.w3.org/2000/svg">
<defs>
<marker id="startarrow" markerWidth="10" markerHeight="7"
refX="0" refY="3.5" orient="auto">
<polygon points="10 0, 10 7, 0 3.5" fill="context-stroke" />
</marker>
<marker id="endarrow" markerWidth="10" markerHeight="7"
refX="10" refY="3.5" orient="auto">
<polygon points="0 0, 10 3.5, 0 7" fill="context-stroke" />
</marker>

</defs><style>
.a15 { font-size: 15px; font-family: Times, serif; }
</style>
<g >

            <ellipse cx="376.375" cy="710" rx="25" ry="25" fill="#ff8ca1ff" 
            stroke-width="2" stroke="#f45f74ff"/>

            </g>
<g >

            <ellipse cx="376.375" cy="710" rx="29" ry="29" fill="#00000000" 
            stroke-width="2" stroke="#f45f74ff"/>

            </g>
<text dominant-baseline="middle" text-anchor="middle" 
            x="376.375" y="695" class="a15"><tspan x = "376.375" dy="1.0em">END</tspan></text><g >

            <ellipse cx="185.75" cy="600" rx="25" ry="25" fill="#bdd373ff" 
            stroke-width="2" stroke="#98c127ff"/>

            </g>
<text dominant-baseline="middle" text-anchor="middle" 
            x="185.75" y="585" class="a15"><tspan x = "185.75" dy="1.0em">|&gt;</tspan></text><g >

            <ellipse cx="110" cy="165" rx="25" ry="25" fill="#8fd7d7ff" 
            stroke-width="2" stroke="#00b0beff"/>

            </g>
<text dominant-baseline="middle" text-anchor="middle" 
            x="110" y="150" class="a15"><tspan x = "110" dy="1.0em">+</tspan></text><g >

            <rect x="352.5" y="285" width="50" height="50" fill="#ff8ca1ff" 
            stroke-width="2" stroke="#f45f74ff" rx="0"  />

            </g>
<text dominant-baseline="middle" text-anchor="middle" 
            x="377.5" y="295" class="a15"><tspan x = "377.5" dy="1.0em">switch</tspan></text><g >

            <rect x="534.625" y="430" width="50" height="50" fill="#ffcd8eff" 
            stroke-width="2" stroke="#ffb255ff" rx="0"  />

            </g>
<text dominant-baseline="middle" text-anchor="middle" 
            x="559.625" y="440" class="a15"><tspan x = "559.625" dy="1.0em">7</tspan></text><g >

            <rect x="580.25" y="30" width="50" height="50" fill="#ffcd8eff" 
            stroke-width="2" stroke="#ffb255ff" rx="0"  />

            </g>
<text dominant-baseline="middle" text-anchor="middle" 
            x="605.25" y="40" class="a15"><tspan x = "605.25" dy="1.0em">0</tspan></text><g >

            <rect x="265" y="430" width="50" height="50" fill="#ff8ca1ff" 
            stroke-width="2" stroke="#f45f74ff" rx="0"  />

            </g>
<text dominant-baseline="middle" text-anchor="middle" 
            x="290" y="440" class="a15"><tspan x = "290" dy="1.0em">function</tspan></text><g >

            <rect x="358.25" y="30" width="50" height="50" fill="#ff8ca1ff" 
            stroke-width="2" stroke="#f45f74ff" rx="0"  />

            </g>
<text dominant-baseline="middle" text-anchor="middle" 
            x="383.25" y="40" class="a15"><tspan x = "383.25" dy="1.0em">input</tspan></text><g >

            <rect x="30" y="30" width="50" height="50" fill="#ffcd8eff" 
            stroke-width="2" stroke="#ffb255ff" rx="0"  />

            </g>
<text dominant-baseline="middle" text-anchor="middle" 
            x="55" y="40" class="a15"><tspan x = "55" dy="1.0em">-1</tspan></text><g >

            <ellipse cx="465" cy="165" rx="25" ry="25" fill="#8fd7d7ff" 
            stroke-width="2" stroke="#00b0beff"/>

            </g>
<text dominant-baseline="middle" text-anchor="middle" 
            x="465" y="150" class="a15"><tspan x = "465" dy="1.0em">==</tspan></text><g >

            <rect x="550" y="140" width="50" height="50" fill="#ffcd8eff" 
            stroke-width="2" stroke="#ffb255ff" rx="0"  />

            </g>
<text dominant-baseline="middle" text-anchor="middle" 
            x="575" y="150" class="a15"><tspan x = "575" dy="1.0em">1</tspan></text><g >

            <ellipse cx="303.5" cy="165" rx="25" ry="25" fill="#8fd7d7ff" 
            stroke-width="2" stroke="#00b0beff"/>

            </g>
<text dominant-baseline="middle" text-anchor="middle" 
            x="303.5" y="150" class="a15"><tspan x = "303.5" dy="1.0em">*</tspan></text><g >

            <ellipse cx="376.375" cy="600" rx="25" ry="25" fill="#bdd373ff" 
            stroke-width="2" stroke="#98c127ff"/>

            </g>
<text dominant-baseline="middle" text-anchor="middle" 
            x="376.375" y="585" class="a15"><tspan x = "376.375" dy="1.0em">|&gt;</tspan></text><text dominant-baseline="middle" text-anchor="middle" 
            x="242.5" y="512.5" class="a15"><tspan x = "242.5" dy="1.0em">apply</tspan></text><text dominant-baseline="middle" text-anchor="middle" 
            x="110" y="512.5" class="a15"><tspan x = "110" dy="1.0em">to</tspan></text><text dominant-baseline="middle" text-anchor="middle" 
            x="421.25" y="222.5" class="a15"><tspan x = "421.25" dy="1.0em">if</tspan></text><text dominant-baseline="middle" text-anchor="middle" 
            x="575" y="222.5" class="a15"><tspan x = "575" dy="1.0em">then</tspan></text><text dominant-baseline="middle" text-anchor="middle" 
            x="377.5" y="222.5" class="a15"><tspan x = "377.5" dy="1.0em">else</tspan></text><text dominant-baseline="middle" text-anchor="middle" 
            x="290" y="367.5" class="a15"><tspan x = "290" dy="1.0em">input</tspan></text><text dominant-baseline="middle" text-anchor="middle" 
            x="377.5" y="367.5" class="a15"><tspan x = "377.5" dy="1.0em">body</tspan></text><text dominant-baseline="middle" text-anchor="middle" 
            x="376.375" y="512.5" class="a15"><tspan x = "376.375" dy="1.0em">apply</tspan></text><text dominant-baseline="middle" text-anchor="middle" 
            x="468" y="512.5" class="a15"><tspan x = "468" dy="1.0em">to</tspan></text><g >

            <path id="arrow0" d="M 376.375 625 C 376.375 655, 376.375 655, 376.375 685 " stroke="#000000ff" stroke-width="2"   marker-end="url(#endarrow)" 
            fill="transparent" />

            </g>
<text><textPath href="#arrow0" startOffset="50%" text-anchor="middle" class="a15"></textPath></text><g >

            <path id="arrow1" d="M 267.20588235294116 480 C 255.7833881953123 507.7403429542415, 257.96699147304867 514.8754382714611, 242.5 540 S 223.5436171111149 560.0419907195261, 202.9289168686886 581.8372685088755 " stroke="#000000ff" stroke-width="2"   marker-end="url(#endarrow)" 
            fill="transparent" />

            </g>
<text><textPath href="#arrow1" startOffset="50%" text-anchor="middle" class="a15"></textPath></text><g >

            <path id="arrow2" d="M 110 190 C 110 220, 110 208, 110 238 S 110 280.5, 110 310.5 S 110 353, 110 383 S 110 425.5, 110 455.5 S 110 510, 110 540 S 142.6361368877911 565.8504054556761, 166.1527894944505 584.4774570253073 " stroke="#000000ff" stroke-width="2"   marker-end="url(#endarrow)" 
            fill="transparent" />

            </g>
<text><textPath href="#arrow2" startOffset="50%" text-anchor="middle" class="a15"></textPath></text><g >

            <path id="arrow3" d="M 358.25 60.27325023969319 C 330.60892687488985 71.93391387828231, 160.67530072936856 143.62211666258662, 133.03422760425843 155.28278030117573 " stroke="#000000ff" stroke-width="2"   marker-end="url(#endarrow)" 
            fill="transparent" />

            </g>
<text><textPath href="#arrow3" startOffset="50%" text-anchor="middle" class="a15"></textPath></text><g >

            <path id="arrow4" d="M 77.1590909090909 80 C 87.97106928515578 107.9839440321679, 90.17803964388106 113.69610260769218, 100.99001801994594 141.68004663986008 " stroke="#000000ff" stroke-width="2"   marker-end="url(#endarrow)" 
            fill="transparent" />

            </g>
<text><textPath href="#arrow4" startOffset="50%" text-anchor="middle" class="a15"></textPath></text><g >

            <path id="arrow5" d="M 453.55891420456555 187.22839525970122 C 439.8296112500442 213.9024695713427, 436.90240784865637 224.51211670405607, 421.25 250 S 416.35803256510906 259.3925774749906, 402.5 286 " stroke="#000000ff" stroke-width="2"   marker-end="url(#endarrow)" 
            fill="transparent" />

            </g>
<text><textPath href="#arrow5" startOffset="50%" text-anchor="middle" class="a15"></textPath></text><g >

            <path id="arrow6" d="M 575 190 C 575 220, 575 220, 575 250 S 431.0366845684629 296.69080500482283, 402.5 305.94594594594594 " stroke="#000000ff" stroke-width="2"   marker-end="url(#endarrow)" 
            fill="transparent" />

            </g>
<text><textPath href="#arrow6" startOffset="50%" text-anchor="middle" class="a15"></textPath></text><g >

            <path id="arrow7" d="M 319.91544915939363 183.8555834938981 C 339.613988150666 206.48228368657584, 377.5 220, 377.5 250 S 377.5 255, 377.5 285 " stroke="#000000ff" stroke-width="2"   marker-end="url(#endarrow)" 
            fill="transparent" />

            </g>
<text><textPath href="#arrow7" startOffset="50%" text-anchor="middle" class="a15"></textPath></text><g >

            <path id="arrow8" d="M 358.25 64.77876106194691 C 334.6213204022604 83.26349802159454, 225.96821337532015 144.13194770844123, 229.5 165.5 S 290 208, 290 238 S 290 280.5, 290 310.5 S 290 365, 290 395 S 290 400, 290 430 " stroke="#000000ff" stroke-width="2"   marker-end="url(#endarrow)" 
            fill="transparent" />

            </g>
<text><textPath href="#arrow8" startOffset="50%" text-anchor="middle" class="a15"></textPath></text><g >

            <path id="arrow9" d="M 377.5 335 C 377.5 365, 377.5 365, 377.5 395 S 338.4260642832909 426.25914857336727, 315 445 " stroke="#000000ff" stroke-width="2"   marker-end="url(#endarrow)" 
            fill="transparent" />

            </g>
<text><textPath href="#arrow9" startOffset="50%" text-anchor="middle" class="a15"></textPath></text><g >

            <path id="arrow10" d="M 408.25 59.718456725756 C 436.3169569880235 70.3130744834875, 635.5 115.5, 635.5 145.5 S 635.5 208, 635.5 238 S 635.5 280.5, 635.5 310.5 S 635.5 353, 635.5 383 S 344.322424963196 445.9573135214711, 315 452.2972972972973 " stroke="#000000ff" stroke-width="2"  marker-start="url(#startarrow)"  
            fill="transparent" />

            </g>
<text><textPath href="#arrow10" startOffset="50%" text-anchor="middle" class="a15"></textPath></text><g >

            <path id="arrow11" d="M 408.25 74.85559566787003 C 424.2328677109993 100.24354437848264, 435.69807586316796 118.4554273638769, 451.68094357416726 143.8433760744895 " stroke="#000000ff" stroke-width="2"   marker-end="url(#endarrow)" 
            fill="transparent" />

            </g>
<text><textPath href="#arrow11" startOffset="50%" text-anchor="middle" class="a15"></textPath></text><g >

            <path id="arrow12" d="M 580.25 65.76320939334639 C 557.5163248874685 85.33819383466505, 506.67840437297434 129.11252852424911, 483.9447292604429 148.68751296556778 " stroke="#000000ff" stroke-width="2"   marker-end="url(#endarrow)" 
            fill="transparent" />

            </g>
<text><textPath href="#arrow12" startOffset="50%" text-anchor="middle" class="a15"></textPath></text><g >

            <path id="arrow13" d="M 358.25 75.4460966542751 C 342.60179394992736 101.04167532353887, 332.1883777584665 118.07477243968307, 316.54017170839387 143.67035110894685 " stroke="#000000ff" stroke-width="2"   marker-end="url(#endarrow)" 
            fill="transparent" />

            </g>
<text><textPath href="#arrow13" startOffset="50%" text-anchor="middle" class="a15"></textPath></text><g >

            <path id="arrow14" d="M 282.25202864713737 178.17283998946047 C 256.7544630237022 193.98024797681305, 185.75 208, 185.75 238 S 185.75 280.5, 185.75 310.5 S 185.75 353, 185.75 383 S 185.75 425.5, 185.75 455.5 S 185.75 498, 185.75 528 S 185.75 545, 185.75 575 " stroke="#000000ff" stroke-width="2"  marker-start="url(#startarrow)"  
            fill="transparent" />

            </g>
<text><textPath href="#arrow14" startOffset="50%" text-anchor="middle" class="a15"></textPath></text><g >

            <path id="arrow15" d="M 315 469.3824027072758 C 334.67958997221854 492.02558575483687, 376.375 510, 376.375 540 S 376.375 545, 376.375 575 " stroke="#000000ff" stroke-width="2"   marker-end="url(#endarrow)" 
            fill="transparent" />

            </g>
<text><textPath href="#arrow15" startOffset="50%" text-anchor="middle" class="a15"></textPath></text><g >

            <path id="arrow16" d="M 534.625 468.42812006319116 C 514.1842336535244 490.3866052379201, 490.637333890936 520.6468561392901, 468 540 S 422.3873066243254 569.8691580086273, 397.2896848292388 586.3041627311942 " stroke="#000000ff" stroke-width="2"   marker-end="url(#endarrow)" 
            fill="transparent" />

            </g>
<text><textPath href="#arrow16" startOffset="50%" text-anchor="middle" class="a15"></textPath></text></svg>