<?xml version="1.0" encoding="UTF-8" standalone="no"?><svg width="849" height="1208" viewBox="0 0 849 1208" xmlns="http://www.w3.org/2000/svg">
<defs>
<marker id="startarrow" markerWidth="10" markerHeight="7"
refX="0" refY="3.5" orient="auto">
<polygon points="10 0, 10 7, 0 3.5" fill="context-stroke" />
</marker>
<marker id="endarrow" markerWidth="10" markerHeight="7"
refX="10" refY="3.5" orient="auto">
<polygon points="0 0, 10 3.5, 0 7" fill="context-stroke" />
</marker>

</defs><style>
.a15 { font-size: 15px; font-family: Times, serif; }
</style>
<g >

            <rect x="454.5" y="865" width="50" height="50" fill="#ffcd8eff" 
            stroke-width="2" stroke="#ffb255ff" rx="0"  />

            </g>
<text dominant-baseline="middle" text-anchor="middle" 
            x="479.5" y="875" class="a15"><tspan x = "479.5" dy="1.0em">7</tspan></text><g >

            <ellipse cx="142.5" cy="745" rx="25" ry="25" fill="#bdd373ff" 
            stroke-width="2" stroke="#98c127ff"/>

            </g>
<text dominant-baseline="middle" text-anchor="middle" 
            x="142.5" y="730" class="a15"><tspan x = "142.5" dy="1.0em">|&gt;</tspan></text><g >

            <ellipse cx="794" cy="200" rx="25" ry="25" fill="#8fd7d7ff" 
            stroke-width="2" stroke="#00b0beff"/>

            </g>
<text dominant-baseline="middle" text-anchor="middle" 
            x="794" y="185" class="a15"><tspan x = "794" dy="1.0em">.1</tspan></text><g >

            <rect x="334.5" y="30" width="50" height="50" fill="#ffcd8eff" 
            stroke-width="2" stroke="#ffb255ff" rx="0"  />

            </g>
<text dominant-baseline="middle" text-anchor="middle" 
            x="359.5" y="40" class="a15"><tspan x = "359.5" dy="1.0em">1</tspan></text><g >

            <ellipse cx="347.125" cy="745" rx="25" ry="25" fill="#bdd373ff" 
            stroke-width="2" stroke="#98c127ff"/>

            </g>
<text dominant-baseline="middle" text-anchor="middle" 
            x="347.125" y="730" class="a15"><tspan x = "347.125" dy="1.0em">|&gt;</tspan></text><g >

            <rect x="30" y="865" width="50" height="50" fill="#ff8ca1ff" 
            stroke-width="2" stroke="#f45f74ff" rx="0"  />

            </g>
<text dominant-baseline="middle" text-anchor="middle" 
            x="55" y="875" class="a15"><tspan x = "55" dy="1.0em">function</tspan></text><g >

            <ellipse cx="684" cy="200" rx="25" ry="25" fill="#8fd7d7ff" 
            stroke-width="2" stroke="#00b0beff"/>

            </g>
<text dominant-baseline="middle" text-anchor="middle" 
            x="684" y="185" class="a15"><tspan x = "684" dy="1.0em">.0</tspan></text><g >

            <rect x="549" y="175" width="50" height="50" fill="#ffcd8eff" 
            stroke-width="2" stroke="#ffb255ff" rx="0"  />

            </g>
<text dominant-baseline="middle" text-anchor="middle" 
            x="574" y="185" class="a15"><tspan x = "574" dy="1.0em">-1</tspan></text><g >

            <ellipse cx="574" cy="310" rx="25" ry="25" fill="#8fd7d7ff" 
            stroke-width="2" stroke="#00b0beff"/>

            </g>
<text dominant-baseline="middle" text-anchor="middle" 
            x="574" y="295" class="a15"><tspan x = "574" dy="1.0em">+</tspan></text><g >

            <ellipse cx="479.5" cy="1145" rx="25" ry="25" fill="#ff8ca1ff" 
            stroke-width="2" stroke="#f45f74ff"/>

            </g>
<g >

            <ellipse cx="479.5" cy="1145" rx="29" ry="29" fill="#00000000" 
            stroke-width="2" stroke="#f45f74ff"/>

            </g>
<text dominant-baseline="middle" text-anchor="middle" 
            x="479.5" y="1130" class="a15"><tspan x = "479.5" dy="1.0em">END</tspan></text><g >

            <rect x="423.5" y="175" width="50" height="50" fill="#ffcd8eff" 
            stroke-width="2" stroke="#ffb255ff" rx="0"  />

            </g>
<text dominant-baseline="middle" text-anchor="middle" 
            x="448.5" y="185" class="a15"><tspan x = "448.5" dy="1.0em">0</tspan></text><g >

            <rect x="264" y="575" width="50" height="50" fill="#ff8ca1ff" 
            stroke-width="2" stroke="#f45f74ff" rx="0"  />

            </g>
<text dominant-baseline="middle" text-anchor="middle" 
            x="289" y="585" class="a15"><tspan x = "289" dy="1.0em">function</tspan></text><g >

            <ellipse cx="574" cy="455" rx="25" ry="25" fill="#8fd7d7ff" 
            stroke-width="2" stroke="#00b0beff"/>

            </g>
<text dominant-baseline="middle" text-anchor="middle" 
            x="574" y="440" class="a15"><tspan x = "574" dy="1.0em">tuple</tspan></text><g >

            <ellipse cx="684" cy="310" rx="25" ry="25" fill="#8fd7d7ff" 
            stroke-width="2" stroke="#00b0beff"/>

            </g>
<text dominant-baseline="middle" text-anchor="middle" 
            x="684" y="295" class="a15"><tspan x = "684" dy="1.0em">*</tspan></text><g >

            <ellipse cx="448.5" cy="310" rx="25" ry="25" fill="#8fd7d7ff" 
            stroke-width="2" stroke="#00b0beff"/>

            </g>
<text dominant-baseline="middle" text-anchor="middle" 
            x="448.5" y="295" class="a15"><tspan x = "448.5" dy="1.0em">==</tspan></text><g >

            <ellipse cx="479.5" cy="1035" rx="25" ry="25" fill="#bdd373ff" 
            stroke-width="2" stroke="#98c127ff"/>

            </g>
<text dominant-baseline="middle" text-anchor="middle" 
            x="479.5" y="1020" class="a15"><tspan x = "479.5" dy="1.0em">|&gt;</tspan></text><g >

            <ellipse cx="142.5" cy="200" rx="25" ry="25" fill="#8fd7d7ff" 
            stroke-width="2" stroke="#00b0beff"/>

            </g>
<text dominant-baseline="middle" text-anchor="middle" 
            x="142.5" y="185" class="a15"><tspan x = "142.5" dy="1.0em">tuple</tspan></text><g >

            <rect x="529.75" y="30" width="50" height="50" fill="#ff8ca1ff" 
            stroke-width="2" stroke="#f45f74ff" rx="0"  />

            </g>
<text dominant-baseline="middle" text-anchor="middle" 
            x="554.75" y="40" class="a15"><tspan x = "554.75" dy="1.0em">input</tspan></text><g >

            <rect x="423.5" y="430" width="50" height="50" fill="#ff8ca1ff" 
            stroke-width="2" stroke="#f45f74ff" rx="0"  />

            </g>
<text dominant-baseline="middle" text-anchor="middle" 
            x="448.5" y="440" class="a15"><tspan x = "448.5" dy="1.0em">switch</tspan></text><g >

            <rect x="51" y="30" width="50" height="50" fill="#ff8ca1ff" 
            stroke-width="2" stroke="#f45f74ff" rx="0"  />

            </g>
<text dominant-baseline="middle" text-anchor="middle" 
            x="76" y="40" class="a15"><tspan x = "76" dy="1.0em">input</tspan></text><text dominant-baseline="middle" text-anchor="middle" 
            x="241.5" y="657.5" class="a15"><tspan x = "241.5" dy="1.0em">apply</tspan></text><text dominant-baseline="middle" text-anchor="middle" 
            x="794" y="112.5" class="a15"><tspan x = "794" dy="1.0em">1</tspan></text><text dominant-baseline="middle" text-anchor="middle" 
            x="347.125" y="657.5" class="a15"><tspan x = "347.125" dy="1.0em">apply</tspan></text><text dominant-baseline="middle" text-anchor="middle" 
            x="574" y="657.5" class="a15"><tspan x = "574" dy="1.0em">to data</tspan></text><text dominant-baseline="middle" text-anchor="middle" 
            x="55" y="802.5" class="a15"><tspan x = "55" dy="1.0em">body</tspan></text><text dominant-baseline="middle" text-anchor="middle" 
            x="142.5" y="802.5" class="a15"><tspan x = "142.5" dy="1.0em">input</tspan></text><text dominant-baseline="middle" text-anchor="middle" 
            x="619.375" y="112.5" class="a15"><tspan x = "619.375" dy="1.0em">0</tspan></text><text dominant-baseline="middle" text-anchor="middle" 
            x="334.5" y="512.5" class="a15"><tspan x = "334.5" dy="1.0em">body</tspan></text><text dominant-baseline="middle" text-anchor="middle" 
            x="422" y="512.5" class="a15"><tspan x = "422" dy="1.0em">input</tspan></text><text dominant-baseline="middle" text-anchor="middle" 
            x="574" y="367.5" class="a15"><tspan x = "574" dy="1.0em">0</tspan></text><text dominant-baseline="middle" text-anchor="middle" 
            x="629" y="367.5" class="a15"><tspan x = "629" dy="1.0em">1</tspan></text><text dominant-baseline="middle" text-anchor="middle" 
            x="267.25" y="947.5" class="a15"><tspan x = "267.25" dy="1.0em">apply</tspan></text><text dominant-baseline="middle" text-anchor="middle" 
            x="479.5" y="947.5" class="a15"><tspan x = "479.5" dy="1.0em">to data</tspan></text><text dominant-baseline="middle" text-anchor="middle" 
            x="109.25" y="112.5" class="a15"><tspan x = "109.25" dy="1.0em">0</tspan></text><text dominant-baseline="middle" text-anchor="middle" 
            x="251" y="112.5" class="a15"><tspan x = "251" dy="1.0em">1</tspan></text><text dominant-baseline="middle" text-anchor="middle" 
            x="448.5" y="367.5" class="a15"><tspan x = "448.5" dy="1.0em">if</tspan></text><text dominant-baseline="middle" text-anchor="middle" 
            x="513.5" y="367.5" class="a15"><tspan x = "513.5" dy="1.0em">then</tspan></text><text dominant-baseline="middle" text-anchor="middle" 
            x="142.5" y="585" class="a15"><tspan x = "142.5" dy="1.0em">to data</tspan></text><text dominant-baseline="middle" text-anchor="middle" 
            x="476.125" y="585" class="a15"><tspan x = "476.125" dy="1.0em">else</tspan></text><g >

            <path id="arrow0" d="M 266.20588235294116 625 C 254.7833881953123 652.7403429542414, 258.0349820194606 661.638628412682, 241.5 685 S 189.53588073547098 716.4934056148661, 163.87994578885045 732.0424570976664 " stroke="#000000ff" stroke-width="2"   marker-end="url(#endarrow)" 
            fill="transparent" />

            </g>
<text><textPath href="#arrow0" startOffset="50%" text-anchor="middle" class="a15"></textPath></text><g >

            <path id="arrow1" d="M 142.5 225 C 142.5 255, 142.5 280.5, 142.5 310.5 S 142.5 353, 142.5 383 S 142.5 425.5, 142.5 455.5 S 142.5 498, 142.5 528 S 142.5 582.5, 142.5 612.5 S 142.5 643, 142.5 673 S 142.5 690, 142.5 720 " stroke="#000000ff" stroke-width="2"   marker-end="url(#endarrow)" 
            fill="transparent" />

            </g>
<text><textPath href="#arrow1" startOffset="50%" text-anchor="middle" class="a15"></textPath></text><g >

            <path id="arrow2" d="M 579.75 59.68577728776185 C 607.8411479232655 70.21608632184152, 794 110, 794 140 S 794 145, 794 175 " stroke="#000000ff" stroke-width="2"   marker-end="url(#endarrow)" 
            fill="transparent" />

            </g>
<text><textPath href="#arrow2" startOffset="50%" text-anchor="middle" class="a15"></textPath></text><g >

            <path id="arrow3" d="M 314 623.2876712328767 C 328.18821170977907 649.7205040072596, 347.125 655, 347.125 685 S 347.125 690, 347.125 720 " stroke="#000000ff" stroke-width="2"   marker-end="url(#endarrow)" 
            fill="transparent" />

            </g>
<text><textPath href="#arrow3" startOffset="50%" text-anchor="middle" class="a15"></textPath></text><g >

            <path id="arrow4" d="M 574 480 C 574 510, 574 498, 574 528 S 574 570.5, 574 600.5 S 574 655, 574 685 S 400.2969833641169 730.9379878706467, 371.29408334732585 738.6081763048394 " stroke="#000000ff" stroke-width="2"   marker-end="url(#endarrow)" 
            fill="transparent" />

            </g>
<text><textPath href="#arrow4" startOffset="50%" text-anchor="middle" class="a15"></textPath></text><g >

            <path id="arrow5" d="M 68.8082191780822 80 C 60.514436662071965 108.83076779374984, 55 98, 55 128 S 55 170.5, 55 200.5 S 55 280.5, 55 310.5 S 55 353, 55 383 S 55 425.5, 55 455.5 S 55 498, 55 528 S 55 570.5, 55 600.5 S 55 643, 55 673 S 55 715.5, 55 745.5 S 55 800, 55 830 S 55 835, 55 865 " stroke="#000000ff" stroke-width="2"   marker-end="url(#endarrow)" 
            fill="transparent" />

            </g>
<text><textPath href="#arrow5" startOffset="50%" text-anchor="middle" class="a15"></textPath></text><g >

            <path id="arrow6" d="M 142.5 770 C 142.5 800, 142.5 800, 142.5 830 S 103.42606428329091 861.2591485733673, 80 880 " stroke="#000000ff" stroke-width="2"   marker-end="url(#endarrow)" 
            fill="transparent" />

            </g>
<text><textPath href="#arrow6" startOffset="50%" text-anchor="middle" class="a15"></textPath></text><g >

            <path id="arrow7" d="M 579.75 75.38369304556355 C 595.4330346515399 100.95794619435756, 600.7788248490177 116.81196956086045, 619.375 140 S 643.6935813382655 162.57817996589446, 665.6789006083025 182.9900818026793 " stroke="#000000ff" stroke-width="2"   marker-end="url(#endarrow)" 
            fill="transparent" />

            </g>
<text><textPath href="#arrow7" startOffset="50%" text-anchor="middle" class="a15"></textPath></text><g >

            <path id="arrow8" d="M 666.3223304703363 217.6776695296637 C 645.1091270347399 238.89087296526012, 612.8908729652601 271.10912703473986, 591.6776695296637 292.3223304703363 " stroke="#000000ff" stroke-width="2"   marker-end="url(#endarrow)" 
            fill="transparent" />

            </g>
<text><textPath href="#arrow8" startOffset="50%" text-anchor="middle" class="a15"></textPath></text><g >

            <path id="arrow9" d="M 574 225 C 574 255, 574 255, 574 285 " stroke="#000000ff" stroke-width="2"   marker-end="url(#endarrow)" 
            fill="transparent" />

            </g>
<text><textPath href="#arrow9" startOffset="50%" text-anchor="middle" class="a15"></textPath></text><g >

            <path id="arrow10" d="M 479.5 1060 C 479.5 1090, 479.5 1090, 479.5 1120 " stroke="#000000ff" stroke-width="2"   marker-end="url(#endarrow)" 
            fill="transparent" />

            </g>
<text><textPath href="#arrow10" startOffset="50%" text-anchor="middle" class="a15"></textPath></text><g >

            <path id="arrow11" d="M 529.75 59.392298435619736 C 501.44648371219824 69.33769766069568, 334.5 98, 334.5 128 S 334.5 170.5, 334.5 200.5 S 334.5 280.5, 334.5 310.5 S 334.5 353, 334.5 383 S 334.5 425.5, 334.5 455.5 S 334.5 510, 334.5 540 S 328.4575624931647 550.9862500124278, 314 577.2727272727273 " stroke="#000000ff" stroke-width="2"   marker-end="url(#endarrow)" 
            fill="transparent" />

            </g>
<text><textPath href="#arrow11" startOffset="50%" text-anchor="middle" class="a15"></textPath></text><g >

            <path id="arrow12" d="M 431.88235294117646 480 C 427.0068651347901 509.6011759673459, 433.4855325743885 515.47744743538, 422 540 S 340.8550650705441 580.4041169773225, 314 593.7759336099585 " stroke="#000000ff" stroke-width="2"   marker-end="url(#endarrow)" 
            fill="transparent" />

            </g>
<text><textPath href="#arrow12" startOffset="50%" text-anchor="middle" class="a15"></textPath></text><g >

            <path id="arrow13" d="M 574 335 C 574 365, 574 365, 574 395 S 574 400, 574 430 " stroke="#000000ff" stroke-width="2"   marker-end="url(#endarrow)" 
            fill="transparent" />

            </g>
<text><textPath href="#arrow13" startOffset="50%" text-anchor="middle" class="a15"></textPath></text><g >

            <path id="arrow14" d="M 670.4187180460682 330.9892539288038 C 654.12117970135 356.1763586433683, 647.2196968584775 371.29892865285154, 629 395 S 611.1648545684541 414.4565222889592, 590.8931157129336 436.57114649498146 " stroke="#000000ff" stroke-width="2"   marker-end="url(#endarrow)" 
            fill="transparent" />

            </g>
<text><textPath href="#arrow14" startOffset="50%" text-anchor="middle" class="a15"></textPath></text><g >

            <path id="arrow15" d="M 684 225 C 684 255, 684 255, 684 285 " stroke="#000000ff" stroke-width="2"   marker-end="url(#endarrow)" 
            fill="transparent" />

            </g>
<text><textPath href="#arrow15" startOffset="50%" text-anchor="middle" class="a15"></textPath></text><g >

            <path id="arrow16" d="M 776.3223304703363 217.6776695296637 C 755.1091270347399 238.89087296526012, 722.8908729652601 271.10912703473986, 701.6776695296637 292.3223304703363 " stroke="#000000ff" stroke-width="2"   marker-end="url(#endarrow)" 
            fill="transparent" />

            </g>
<text><textPath href="#arrow16" startOffset="50%" text-anchor="middle" class="a15"></textPath></text><g >

            <path id="arrow17" d="M 661.3491086884069 210.58003415828125 C 634.1680391144952 223.27607514821875, 498.3319608855047 286.72392485178125, 471.15089131159306 299.41996584171875 " stroke="#000000ff" stroke-width="2"   marker-end="url(#endarrow)" 
            fill="transparent" />

            </g>
<text><textPath href="#arrow17" startOffset="50%" text-anchor="middle" class="a15"></textPath></text><g >

            <path id="arrow18" d="M 448.5 225 C 448.5 255, 448.5 255, 448.5 285 " stroke="#000000ff" stroke-width="2"   marker-end="url(#endarrow)" 
            fill="transparent" />

            </g>
<text><textPath href="#arrow18" startOffset="50%" text-anchor="middle" class="a15"></textPath></text><g >

            <path id="arrow19" d="M 80 895.3191489361702 C 107.60463906885735 907.0658038590882, 239.03876968702042 964.9741223725523, 267.25 975 S 426.5740469575506 1020.0385998466573, 455.44274861706845 1028.1993635666624 " stroke="#000000ff" stroke-width="2"   marker-end="url(#endarrow)" 
            fill="transparent" />

            </g>
<text><textPath href="#arrow19" startOffset="50%" text-anchor="middle" class="a15"></textPath></text><g >

            <path id="arrow20" d="M 479.5 915 C 479.5 945, 479.5 945, 479.5 975 S 479.5 980, 479.5 1010 " stroke="#000000ff" stroke-width="2"   marker-end="url(#endarrow)" 
            fill="transparent" />

            </g>
<text><textPath href="#arrow20" startOffset="50%" text-anchor="middle" class="a15"></textPath></text><g >

            <path id="arrow21" d="M 94.6029411764706 80 C 101.71754632917929 109.14416568579466, 98.61668910897957 112.23169643494168, 109.25 140 S 115.84071079107702 151.89301195382316, 130.38214126867138 178.1331872517378 " stroke="#000000ff" stroke-width="2"   marker-end="url(#endarrow)" 
            fill="transparent" />

            </g>
<text><textPath href="#arrow21" startOffset="50%" text-anchor="middle" class="a15"></textPath></text><g >

            <path id="arrow22" d="M 334.5 66.06770833333333 C 312.03903696610604 85.95501935292694, 275.2567817998015 122.65537974400999, 251 140 S 190.63086959440488 173.38385091553647, 164.37766799745677 187.90175041615294 " stroke="#000000ff" stroke-width="2"   marker-end="url(#endarrow)" 
            fill="transparent" />

            </g>
<text><textPath href="#arrow22" startOffset="50%" text-anchor="middle" class="a15"></textPath></text><g >

            <path id="arrow23" d="M 529.75 58.603158933859824 C 500.9236897609169 66.91242111531321, 289 98, 289 128 S 289 170.5, 289 200.5 S 289 280.5, 289 310.5 S 289 353, 289 383 S 289 425.5, 289 455.5 S 289 498, 289 528 S 289 545, 289 575 " stroke="#000000ff" stroke-width="2"  marker-start="url(#startarrow)"  
            fill="transparent" />

            </g>
<text><textPath href="#arrow23" startOffset="50%" text-anchor="middle" class="a15"></textPath></text><g >

            <path id="arrow24" d="M 448.5 335 C 448.5 365, 448.5 365, 448.5 395 S 448.5 400, 448.5 430 " stroke="#000000ff" stroke-width="2"   marker-end="url(#endarrow)" 
            fill="transparent" />

            </g>
<text><textPath href="#arrow24" startOffset="50%" text-anchor="middle" class="a15"></textPath></text><g >

            <path id="arrow25" d="M 384.5 61.44876325088339 C 411.1610964219958 75.20325115763741, 513.5 98, 513.5 128 S 513.5 170.5, 513.5 200.5 S 513.5 280.5, 513.5 310.5 S 513.5 365, 513.5 395 S 493.25513823605553 418.13698487307937, 473.5 440.7142857142857 " stroke="#000000ff" stroke-width="2"   marker-end="url(#endarrow)" 
            fill="transparent" />

            </g>
<text><textPath href="#arrow25" startOffset="50%" text-anchor="middle" class="a15"></textPath></text><g >

            <path id="arrow26" d="M 466.17979452054794 480 C 472.2662790698517 509.3760907173008, 476.125 498, 476.125 528 S 476.125 582.5, 476.125 612.5 S 476.125 643, 476.125 673 S 395.1508736108202 718.1948612404724, 368.95494255037283 732.8158460183965 " stroke="#000000ff" stroke-width="2"  marker-start="url(#startarrow)"  
            fill="transparent" />

            </g>
<text><textPath href="#arrow26" startOffset="50%" text-anchor="middle" class="a15"></textPath></text><g >

            <path id="arrow27" d="M 51 71.89814814814815 C 33.15897981580491 96.01656432307854, 9.5 98, 9.5 128 S 9.5 170.5, 9.5 200.5 S 9.5 280.5, 9.5 310.5 S 9.5 353, 9.5 383 S 9.5 425.5, 9.5 455.5 S 9.5 498, 9.5 528 S 9.5 570.5, 9.5 600.5 S 9.5 643, 9.5 673 S 9.5 715.5, 9.5 745.5 S 9.5 788, 9.5 818 S 18.542025351870258 837.7280553131715, 31.041666666666664 865 " stroke="#000000ff" stroke-width="2"  marker-start="url(#startarrow)"  
            fill="transparent" />

            </g>
<text><textPath href="#arrow27" startOffset="50%" text-anchor="middle" class="a15"></textPath></text></svg>