<?xml version="1.0" encoding="UTF-8" standalone="no"?><svg width="1073.5" height="1035" viewBox="0 0 1073.5 1035" xmlns="http://www.w3.org/2000/svg">
<defs>
<marker id="startarrow" markerWidth="10" markerHeight="7"
refX="0" refY="3.5" orient="auto">
<polygon points="10 0, 10 7, 0 3.5" fill="context-stroke" />
</marker>
<marker id="endarrow" markerWidth="10" markerHeight="7"
refX="10" refY="3.5" orient="auto">
<polygon points="0 0, 10 3.5, 0 7" fill="context-stroke" />
</marker>

</defs><style>
.a15 { font-size: 15px; font-family: Times, serif; }
</style>
<g >

            <rect x="151.5" y="30" width="50" height="50" fill="#ffcd8eff" 
            stroke-width="2" stroke="#ffb255ff" rx="0"  />

            </g>
<text dominant-baseline="middle" text-anchor="middle" 
            x="176.5" y="40" class="a15"><tspan x = "176.5" dy="1.0em">1</tspan></text><g >

            <rect x="536.75" y="945" width="50" height="50" fill="#ff8ca1ff" 
            stroke-width="2" stroke="#f45f74ff" rx="0"  />

            </g>
<text dominant-baseline="middle" text-anchor="middle" 
            x="561.75" y="955" class="a15"><tspan x = "561.75" dy="1.0em">switch</tspan></text><g >

            <ellipse cx="55" cy="860" rx="25" ry="25" fill="#bdd373ff" 
            stroke-width="2" stroke="#98c127ff"/>

            </g>
<text dominant-baseline="middle" text-anchor="middle" 
            x="55" y="845" class="a15"><tspan x = "55" dy="1.0em">|&gt;</tspan></text><g >

            <ellipse cx="763" cy="310" rx="25" ry="25" fill="#8fd7d7ff" 
            stroke-width="2" stroke="#00b0beff"/>

            </g>
<text dominant-baseline="middle" text-anchor="middle" 
            x="763" y="295" class="a15"><tspan x = "763" dy="1.0em">*</tspan></text><g >

            <ellipse cx="653" cy="310" rx="25" ry="25" fill="#8fd7d7ff" 
            stroke-width="2" stroke="#00b0beff"/>

            </g>
<text dominant-baseline="middle" text-anchor="middle" 
            x="653" y="295" class="a15"><tspan x = "653" dy="1.0em">+</tspan></text><g >

            <ellipse cx="561.75" cy="750" rx="25" ry="25" fill="#bdd373ff" 
            stroke-width="2" stroke="#98c127ff"/>

            </g>
<text dominant-baseline="middle" text-anchor="middle" 
            x="561.75" y="735" class="a15"><tspan x = "561.75" dy="1.0em">|&gt;</tspan></text><g >

            <ellipse cx="653" cy="530" rx="25" ry="25" fill="#8fd7d7ff" 
            stroke-width="2" stroke="#00b0beff"/>

            </g>
<text dominant-baseline="middle" text-anchor="middle" 
            x="653" y="515" class="a15"><tspan x = "653" dy="1.0em">tuple</tspan></text><g >

            <rect x="418.75" y="175" width="50" height="50" fill="#ff8ca1ff" 
            stroke-width="2" stroke="#f45f74ff" rx="0"  />

            </g>
<text dominant-baseline="middle" text-anchor="middle" 
            x="443.75" y="185" class="a15"><tspan x = "443.75" dy="1.0em">function</tspan></text><g >

            <ellipse cx="933.5" cy="310" rx="25" ry="25" fill="#8fd7d7ff" 
            stroke-width="2" stroke="#00b0beff"/>

            </g>
<text dominant-baseline="middle" text-anchor="middle" 
            x="933.5" y="295" class="a15"><tspan x = "933.5" dy="1.0em">==</tspan></text><g >

            <ellipse cx="823.5" cy="200" rx="25" ry="25" fill="#8fd7d7ff" 
            stroke-width="2" stroke="#00b0beff"/>

            </g>
<text dominant-baseline="middle" text-anchor="middle" 
            x="823.5" y="185" class="a15"><tspan x = "823.5" dy="1.0em">.0</tspan></text><g >

            <ellipse cx="261.75" cy="200" rx="25" ry="25" fill="#8fd7d7ff" 
            stroke-width="2" stroke="#00b0beff"/>

            </g>
<text dominant-baseline="middle" text-anchor="middle" 
            x="261.75" y="185" class="a15"><tspan x = "261.75" dy="1.0em">tuple</tspan></text><g >

            <rect x="140" y="615" width="50" height="50" fill="#ff8ca1ff" 
            stroke-width="2" stroke="#f45f74ff" rx="0"  />

            </g>
<text dominant-baseline="middle" text-anchor="middle" 
            x="165" y="625" class="a15"><tspan x = "165" dy="1.0em">function</tspan></text><g >

            <rect x="1018.5" y="175" width="50" height="50" fill="#ffcd8eff" 
            stroke-width="2" stroke="#ffb255ff" rx="0"  />

            </g>
<text dominant-baseline="middle" text-anchor="middle" 
            x="1043.5" y="185" class="a15"><tspan x = "1043.5" dy="1.0em">0</tspan></text><g >

            <rect x="644.25" y="30" width="50" height="50" fill="#ff8ca1ff" 
            stroke-width="2" stroke="#f45f74ff" rx="0"  />

            </g>
<text dominant-baseline="middle" text-anchor="middle" 
            x="669.25" y="40" class="a15"><tspan x = "669.25" dy="1.0em">input</tspan></text><g >

            <rect x="30" y="615" width="50" height="50" fill="#ffcd8eff" 
            stroke-width="2" stroke="#ffb255ff" rx="0"  />

            </g>
<text dominant-baseline="middle" text-anchor="middle" 
            x="55" y="625" class="a15"><tspan x = "55" dy="1.0em">7</tspan></text><g >

            <rect x="628" y="175" width="50" height="50" fill="#ffcd8eff" 
            stroke-width="2" stroke="#ffb255ff" rx="0"  />

            </g>
<text dominant-baseline="middle" text-anchor="middle" 
            x="653" y="185" class="a15"><tspan x = "653" dy="1.0em">-1</tspan></text><g >

            <rect x="261.5" y="30" width="50" height="50" fill="#ff8ca1ff" 
            stroke-width="2" stroke="#f45f74ff" rx="0"  />

            </g>
<text dominant-baseline="middle" text-anchor="middle" 
            x="286.5" y="40" class="a15"><tspan x = "286.5" dy="1.0em">input</tspan></text><g >

            <ellipse cx="933.5" cy="200" rx="25" ry="25" fill="#8fd7d7ff" 
            stroke-width="2" stroke="#00b0beff"/>

            </g>
<text dominant-baseline="middle" text-anchor="middle" 
            x="933.5" y="185" class="a15"><tspan x = "933.5" dy="1.0em">.1</tspan></text><g >

            <ellipse cx="55" cy="970" rx="25" ry="25" fill="#ff8ca1ff" 
            stroke-width="2" stroke="#f45f74ff"/>

            </g>
<g >

            <ellipse cx="55" cy="970" rx="29" ry="29" fill="#00000000" 
            stroke-width="2" stroke="#f45f74ff"/>

            </g>
<text dominant-baseline="middle" text-anchor="middle" 
            x="55" y="955" class="a15"><tspan x = "55" dy="1.0em">END</tspan></text><g >

            <ellipse cx="286" cy="420" rx="25" ry="25" fill="#bdd373ff" 
            stroke-width="2" stroke="#98c127ff"/>

            </g>
<text dominant-baseline="middle" text-anchor="middle" 
            x="286" y="405" class="a15"><tspan x = "286" dy="1.0em">|&gt;</tspan></text><text dominant-baseline="middle" text-anchor="middle" 
            x="848.25" y="845" class="a15"><tspan x = "848.25" dy="1.0em">then</tspan></text><text dominant-baseline="middle" text-anchor="middle" 
            x="561.75" y="845" class="a15"><tspan x = "561.75" dy="1.0em">else</tspan></text><text dominant-baseline="middle" text-anchor="middle" 
            x="110" y="735" class="a15"><tspan x = "110" dy="1.0em">apply</tspan></text><text dominant-baseline="middle" text-anchor="middle" 
            x="55" y="735" class="a15"><tspan x = "55" dy="1.0em">to</tspan></text><text dominant-baseline="middle" text-anchor="middle" 
            x="561.75" y="625" class="a15"><tspan x = "561.75" dy="1.0em">apply</tspan></text><text dominant-baseline="middle" text-anchor="middle" 
            x="653" y="625" class="a15"><tspan x = "653" dy="1.0em">to</tspan></text><text dominant-baseline="middle" text-anchor="middle" 
            x="653" y="405" class="a15"><tspan x = "653" dy="1.0em">0</tspan></text><text dominant-baseline="middle" text-anchor="middle" 
            x="708" y="405" class="a15"><tspan x = "708" dy="1.0em">1</tspan></text><text dominant-baseline="middle" text-anchor="middle" 
            x="556.5" y="112.5" class="a15"><tspan x = "556.5" dy="1.0em">input</tspan></text><text dominant-baseline="middle" text-anchor="middle" 
            x="481.75" y="845" class="a15"><tspan x = "481.75" dy="1.0em">body</tspan></text><text dominant-baseline="middle" text-anchor="middle" 
            x="746.375" y="112.5" class="a15"><tspan x = "746.375" dy="1.0em">0</tspan></text><text dominant-baseline="middle" text-anchor="middle" 
            x="310.375" y="112.5" class="a15"><tspan x = "310.375" dy="1.0em">0</tspan></text><text dominant-baseline="middle" text-anchor="middle" 
            x="219.125" y="112.5" class="a15"><tspan x = "219.125" dy="1.0em">1</tspan></text><text dominant-baseline="middle" text-anchor="middle" 
            x="428.75" y="515" class="a15"><tspan x = "428.75" dy="1.0em">input</tspan></text><text dominant-baseline="middle" text-anchor="middle" 
            x="225.5" y="515" class="a15"><tspan x = "225.5" dy="1.0em">body</tspan></text><text dominant-baseline="middle" text-anchor="middle" 
            x="933.5" y="112.5" class="a15"><tspan x = "933.5" dy="1.0em">1</tspan></text><text dominant-baseline="middle" text-anchor="middle" 
            x="286" y="295" class="a15"><tspan x = "286" dy="1.0em">apply</tspan></text><text dominant-baseline="middle" text-anchor="middle" 
            x="358.5" y="295" class="a15"><tspan x = "358.5" dy="1.0em">to</tspan></text><text dominant-baseline="middle" text-anchor="middle" 
            x="933.5" y="735" class="a15"><tspan x = "933.5" dy="1.0em">if</tspan></text><g >

            <path id="arrow0" d="M 933.5 335 C 933.5 365, 933.5 390.5, 933.5 420.5 S 933.5 500.5, 933.5 530.5 S 933.5 610.5, 933.5 640.5 S 933.5 732.5, 933.5 762.5 S 933.5 830.5, 933.5 860.5 S 615.4465862078813 957.4432117195184, 586.75 966.1899791231733 " stroke="#000000ff" stroke-width="2"   marker-end="url(#endarrow)" 
            fill="transparent" />

            </g>
<text><textPath href="#arrow0" startOffset="50%" text-anchor="middle" class="a15"></textPath></text><g >

            <path id="arrow1" d="M 918.2291115092614 219.7939375745057 C 899.9040453203752 243.54666266391254, 848.25 280.5, 848.25 310.5 S 848.25 390.5, 848.25 420.5 S 848.25 500.5, 848.25 530.5 S 848.25 610.5, 848.25 640.5 S 848.25 720.5, 848.25 750.5 S 848.25 842.5, 848.25 872.5 S 615.0139073405924 955.494595015665, 586.75 965.55200729927 " stroke="#000000ff" stroke-width="2"   marker-end="url(#endarrow)" 
            fill="transparent" />

            </g>
<text><textPath href="#arrow1" startOffset="50%" text-anchor="middle" class="a15"></textPath></text><g >

            <path id="arrow2" d="M 561.75 775 C 561.75 805, 561.75 842.5, 561.75 872.5 S 561.75 915, 561.75 945 " stroke="#000000ff" stroke-width="2"   marker-end="url(#endarrow)" 
            fill="transparent" />

            </g>
<text><textPath href="#arrow2" startOffset="50%" text-anchor="middle" class="a15"></textPath></text><g >

            <path id="arrow3" d="M 143.8265306122449 665 C 133.99334954942876 693.3426983575289, 122.18672718837553 735.2190067725753, 110 762.5 S 82.02266528125499 812.0961842741389, 67.28302967329772 838.2255383064268 " stroke="#000000ff" stroke-width="2"   marker-end="url(#endarrow)" 
            fill="transparent" />

            </g>
<text><textPath href="#arrow3" startOffset="50%" text-anchor="middle" class="a15"></textPath></text><g >

            <path id="arrow4" d="M 55 665 C 55 695, 55 732.5, 55 762.5 S 55 805, 55 835 " stroke="#000000ff" stroke-width="2"   marker-end="url(#endarrow)" 
            fill="transparent" />

            </g>
<text><textPath href="#arrow4" startOffset="50%" text-anchor="middle" class="a15"></textPath></text><g >

            <path id="arrow5" d="M 811.452031255696 221.90539771691618 C 796.9944687625314 248.1918749772156, 789.5055312374686 261.8081250227844, 775.047968744304 288.0946022830838 " stroke="#000000ff" stroke-width="2"   marker-end="url(#endarrow)" 
            fill="transparent" />

            </g>
<text><textPath href="#arrow5" startOffset="50%" text-anchor="middle" class="a15"></textPath></text><g >

            <path id="arrow6" d="M 912.4925837943939 213.55317174555233 C 887.2836843476666 229.81697784021512, 809.2163156523334 280.18302215978485, 784.0074162056061 296.44682825444767 " stroke="#000000ff" stroke-width="2"   marker-end="url(#endarrow)" 
            fill="transparent" />

            </g>
<text><textPath href="#arrow6" startOffset="50%" text-anchor="middle" class="a15"></textPath></text><g >

            <path id="arrow7" d="M 802.4925837943939 213.55317174555233 C 777.2836843476666 229.81697784021512, 699.2163156523334 280.18302215978485, 674.0074162056061 296.44682825444767 " stroke="#000000ff" stroke-width="2"   marker-end="url(#endarrow)" 
            fill="transparent" />

            </g>
<text><textPath href="#arrow7" startOffset="50%" text-anchor="middle" class="a15"></textPath></text><g >

            <path id="arrow8" d="M 653 225 C 653 255, 653 255, 653 285 " stroke="#000000ff" stroke-width="2"   marker-end="url(#endarrow)" 
            fill="transparent" />

            </g>
<text><textPath href="#arrow8" startOffset="50%" text-anchor="middle" class="a15"></textPath></text><g >

            <path id="arrow9" d="M 468.75 213.09241706161137 C 489.46660744316193 234.790854241416, 561.75 280.5, 561.75 310.5 S 561.75 390.5, 561.75 420.5 S 561.75 500.5, 561.75 530.5 S 561.75 622.5, 561.75 652.5 S 561.75 695, 561.75 725 " stroke="#000000ff" stroke-width="2"   marker-end="url(#endarrow)" 
            fill="transparent" />

            </g>
<text><textPath href="#arrow9" startOffset="50%" text-anchor="middle" class="a15"></textPath></text><g >

            <path id="arrow10" d="M 653 555 C 653 585, 653 622.5, 653 652.5 S 599.3324978233799 709.8433584900873, 578.8329535560817 731.7469811318579 " stroke="#000000ff" stroke-width="2"   marker-end="url(#endarrow)" 
            fill="transparent" />

            </g>
<text><textPath href="#arrow10" startOffset="50%" text-anchor="middle" class="a15"></textPath></text><g >

            <path id="arrow11" d="M 653 335 C 653 365, 653 402.5, 653 432.5 S 653 475, 653 505 " stroke="#000000ff" stroke-width="2"   marker-end="url(#endarrow)" 
            fill="transparent" />

            </g>
<text><textPath href="#arrow11" startOffset="50%" text-anchor="middle" class="a15"></textPath></text><g >

            <path id="arrow12" d="M 752.760239929154 332.80673833961157 C 740.4725278441388 360.17482434714543, 721.4989185633716 405.7438254894303, 708 432.5 S 680.022665281255 482.09618427413886, 665.2830296732977 508.22553830642676 " stroke="#000000ff" stroke-width="2"   marker-end="url(#endarrow)" 
            fill="transparent" />

            </g>
<text><textPath href="#arrow12" startOffset="50%" text-anchor="middle" class="a15"></textPath></text><g >

            <path id="arrow13" d="M 644.25 65.59850374064838 C 621.3679029965227 84.99978299546703, 581.0888259914043 123.1141707309427, 556.5 140 S 494.4917646919874 177.11216078285042, 468.75 192.51870324189525 " stroke="#000000ff" stroke-width="2"   marker-end="url(#endarrow)" 
            fill="transparent" />

            </g>
<text><textPath href="#arrow13" startOffset="50%" text-anchor="middle" class="a15"></textPath></text><g >

            <path id="arrow14" d="M 462.0192307692308 225 C 468.76501597019353 254.2317358708386, 481.75 280.5, 481.75 310.5 S 481.75 390.5, 481.75 420.5 S 481.75 500.5, 481.75 530.5 S 481.75 610.5, 481.75 640.5 S 481.75 720.5, 481.75 750.5 S 481.75 842.5, 481.75 872.5 S 519.6737006350908 927.2786786951311, 536.75 951.9444444444445 " stroke="#000000ff" stroke-width="2"  marker-start="url(#startarrow)"  
            fill="transparent" />

            </g>
<text><textPath href="#arrow14" startOffset="50%" text-anchor="middle" class="a15"></textPath></text><g >

            <path id="arrow15" d="M 841.1776695296637 217.6776695296637 C 862.3908729652601 238.89087296526012, 894.6091270347399 271.10912703473986, 915.8223304703363 292.3223304703363 " stroke="#000000ff" stroke-width="2"   marker-end="url(#endarrow)" 
            fill="transparent" />

            </g>
<text><textPath href="#arrow15" startOffset="50%" text-anchor="middle" class="a15"></textPath></text><g >

            <path id="arrow16" d="M 1018.5 214.1025641025641 C 998.6007745705244 236.5529722794083, 969.9819132873719 268.84091834245226, 950.0826878578963 291.2913265192965 " stroke="#000000ff" stroke-width="2"   marker-end="url(#endarrow)" 
            fill="transparent" />

            </g>
<text><textPath href="#arrow16" startOffset="50%" text-anchor="middle" class="a15"></textPath></text><g >

            <path id="arrow17" d="M 694.25 71.44100580270793 C 712.4069500212217 95.32248745537876, 725.6313436124636 118.67667427312743, 746.375 140 S 780.089416798816 166.2283955647191, 803.7679167267346 184.64927071123594 " stroke="#000000ff" stroke-width="2"   marker-end="url(#endarrow)" 
            fill="transparent" />

            </g>
<text><textPath href="#arrow17" startOffset="50%" text-anchor="middle" class="a15"></textPath></text><g >

            <path id="arrow18" d="M 293.5220588235294 80 C 301.6345855381071 108.88229406237086, 314.3208040695328 113.60748910590783, 310.375 140 S 296.3789453009586 157.27019602966544, 277.49042968225393 180.5773618316661 " stroke="#000000ff" stroke-width="2"   marker-end="url(#endarrow)" 
            fill="transparent" />

            </g>
<text><textPath href="#arrow18" startOffset="50%" text-anchor="middle" class="a15"></textPath></text><g >

            <path id="arrow19" d="M 197.86029411764707 80 C 207.88186625864589 108.27663508663568, 205.69331545399066 113.49498606091204, 219.125 140 S 229.8968748322275 155.1627563620798, 247.2713067419216 179.61943471003627 " stroke="#000000ff" stroke-width="2"   marker-end="url(#endarrow)" 
            fill="transparent" />

            </g>
<text><textPath href="#arrow19" startOffset="50%" text-anchor="middle" class="a15"></textPath></text><g >

            <path id="arrow20" d="M 311.5 74.01041666666666 C 327.98218790130386 99.07707743323293, 347 98, 347 128 S 347 170.5, 347 200.5 S 428.75 280.5, 428.75 310.5 S 428.75 390.5, 428.75 420.5 S 428.75 512.5, 428.75 542.5 S 217.96796674056162 624.2960129066477, 190 635.1492537313433 " stroke="#000000ff" stroke-width="2"   marker-end="url(#endarrow)" 
            fill="transparent" />

            </g>
<text><textPath href="#arrow20" startOffset="50%" text-anchor="middle" class="a15"></textPath></text><g >

            <path id="arrow21" d="M 274.9295841258803 442.4153048690853 C 261.6450850769367 469.31367071198764, 240.03360881379314 516.2955077940894, 225.5 542.5 S 203.05821306152183 588.0848797187838, 189.80769230769232 615 " stroke="#000000ff" stroke-width="2"   marker-end="url(#endarrow)" 
            fill="transparent" />

            </g>
<text><textPath href="#arrow21" startOffset="50%" text-anchor="middle" class="a15"></textPath></text><g >

            <path id="arrow22" d="M 662.1866438356165 80 C 654.0299240654954 108.8698445197011, 660.544790573251 102.66475497378258, 648.625 128 S 496.84662192830274 184.80594267010892, 468.75 195.3216374269006 " stroke="#000000ff" stroke-width="2"  marker-start="url(#startarrow)"  
            fill="transparent" />

            </g>
<text><textPath href="#arrow22" startOffset="50%" text-anchor="middle" class="a15"></textPath></text><g >

            <path id="arrow23" d="M 261.5 63.37155963302752 C 236.57372870682303 80.06530095781577, 165 98, 165 128 S 165 170.5, 165 200.5 S 165 280.5, 165 310.5 S 165 390.5, 165 420.5 S 165 500.5, 165 530.5 S 165 585, 165 615 " stroke="#000000ff" stroke-width="2"  marker-start="url(#startarrow)"  
            fill="transparent" />

            </g>
<text><textPath href="#arrow23" startOffset="50%" text-anchor="middle" class="a15"></textPath></text><g >

            <path id="arrow24" d="M 694.25 59.22045680238332 C 722.6735922372903 68.81730025886665, 933.5 110, 933.5 140 S 933.5 145, 933.5 175 " stroke="#000000ff" stroke-width="2"   marker-end="url(#endarrow)" 
            fill="transparent" />

            </g>
<text><textPath href="#arrow24" startOffset="50%" text-anchor="middle" class="a15"></textPath></text><g >

            <path id="arrow25" d="M 55 885 C 55 915, 55 915, 55 945 " stroke="#000000ff" stroke-width="2"   marker-end="url(#endarrow)" 
            fill="transparent" />

            </g>
<text><textPath href="#arrow25" startOffset="50%" text-anchor="middle" class="a15"></textPath></text><g >

            <path id="arrow26" d="M 418.75 210.5421686746988 C 395.81700041208643 229.88325266450542, 286 292.5, 286 322.5 S 286 365, 286 395 " stroke="#000000ff" stroke-width="2"   marker-end="url(#endarrow)" 
            fill="transparent" />

            </g>
<text><textPath href="#arrow26" startOffset="50%" text-anchor="middle" class="a15"></textPath></text><g >

            <path id="arrow27" d="M 277.2450014648415 219.6189941027709 C 295.8390032226513 243.161787026096, 358.8468682879703 298.6815791040643, 358.5 322.5 S 318.81865214895083 375.86457124796266, 300.917569158614 399.93844147634667 " stroke="#000000ff" stroke-width="2"   marker-end="url(#endarrow)" 
            fill="transparent" />

            </g>
<text><textPath href="#arrow27" startOffset="50%" text-anchor="middle" class="a15"></textPath></text></svg>