<?xml version="1.0" encoding="UTF-8" standalone="no"?>
<!DOCTYPE svg PUBLIC "-//W3C//DTD SVG 1.1//EN"
 "http://www.w3.org/Graphics/SVG/1.1/DTD/svg11.dtd">
<!-- Generated by graphviz version 2.43.0 (0)
 -->
<!-- Title: %3 Pages: 1 -->
<svg width="234pt" height="337pt"
 viewBox="0.00 0.00 234.00 337.09" xmlns="http://www.w3.org/2000/svg" xmlns:xlink="http://www.w3.org/1999/xlink">
<g id="graph0" class="graph" transform="scale(1 1) rotate(0) translate(4 333.09)">
<title>%3</title>
<polygon fill="white" stroke="transparent" points="-4,4 -4,-333.09 230,-333.09 230,4 -4,4"/>
<!-- 0 -->
<g id="node1" class="node">
<title>0</title>
<polygon fill="none" stroke="#9212b4" points="54,-256.24 0,-256.24 0,-220.24 54,-220.24 54,-256.24"/>
<text text-anchor="middle" x="27" y="-234.54" font-family="Times,serif" font-size="14.00">3</text>
</g>
<!-- 7 -->
<g id="node8" class="node">
<title>7</title>
<ellipse fill="none" stroke="#44aa55" cx="60" cy="-164.54" rx="18.7" ry="18.7"/>
<text text-anchor="middle" x="60" y="-160.84" font-family="Times,serif" font-size="14.00">+</text>
</g>
<!-- 0&#45;&gt;7 -->
<g id="edge1" class="edge">
<title>0&#45;&gt;7</title>
<path fill="none" stroke="black" d="M34.99,-219.89C38.9,-211.4 43.68,-201 48.01,-191.59"/>
<polygon fill="black" stroke="black" points="51.31,-192.79 52.31,-182.25 44.95,-189.87 51.31,-192.79"/>
</g>
<!-- 1 -->
<g id="node2" class="node">
<title>1</title>
<ellipse fill="none" stroke="#44aa55" cx="116" cy="-164.54" rx="18.7" ry="18.7"/>
<text text-anchor="middle" x="116" y="-160.84" font-family="Times,serif" font-size="14.00">+</text>
</g>
<!-- 5 -->
<g id="node6" class="node">
<title>5</title>
<ellipse fill="none" stroke="#44aa55" cx="116" cy="-90.85" rx="18.7" ry="18.7"/>
<text text-anchor="middle" x="116" y="-87.15" font-family="Times,serif" font-size="14.00">+</text>
</g>
<!-- 1&#45;&gt;5 -->
<g id="edge2" class="edge">
<title>1&#45;&gt;5</title>
<path fill="none" stroke="black" d="M116,-145.45C116,-137.87 116,-128.87 116,-120.43"/>
<polygon fill="black" stroke="black" points="119.5,-120.18 116,-110.18 112.5,-120.18 119.5,-120.18"/>
</g>
<!-- 2 -->
<g id="node3" class="node">
<title>2</title>
<polygon fill="none" stroke="#9212b4" points="126,-256.24 72,-256.24 72,-220.24 126,-220.24 126,-256.24"/>
<text text-anchor="middle" x="99" y="-234.54" font-family="Times,serif" font-size="14.00">149</text>
</g>
<!-- 2&#45;&gt;1 -->
<g id="edge3" class="edge">
<title>2&#45;&gt;1</title>
<path fill="none" stroke="black" d="M103.12,-219.89C105.04,-211.76 107.38,-201.88 109.54,-192.79"/>
<polygon fill="black" stroke="black" points="112.96,-193.53 111.86,-182.99 106.15,-191.91 112.96,-193.53"/>
</g>
<!-- 2&#45;&gt;7 -->
<g id="edge4" class="edge">
<title>2&#45;&gt;7</title>
<path fill="none" stroke="black" d="M89.56,-219.89C84.78,-211.09 78.88,-200.25 73.62,-190.58"/>
<polygon fill="black" stroke="black" points="76.67,-188.87 68.82,-181.76 70.52,-192.22 76.67,-188.87"/>
</g>
<!-- 3 -->
<g id="node4" class="node">
<title>3</title>
<polygon fill="none" stroke="#9212b4" points="154,-329.09 100,-329.09 100,-293.09 154,-293.09 154,-329.09"/>
<text text-anchor="middle" x="127" y="-307.39" font-family="Times,serif" font-size="14.00">15</text>
</g>
<!-- 6 -->
<g id="node7" class="node">
<title>6</title>
<ellipse fill="none" stroke="#44aa55" cx="163" cy="-238.24" rx="18.7" ry="18.7"/>
<text text-anchor="middle" x="163" y="-234.54" font-family="Times,serif" font-size="14.00">+</text>
</g>
<!-- 3&#45;&gt;6 -->
<g id="edge5" class="edge">
<title>3&#45;&gt;6</title>
<path fill="none" stroke="black" d="M135.71,-292.94C140.08,-284.34 145.46,-273.76 150.28,-264.27"/>
<polygon fill="black" stroke="black" points="153.45,-265.76 154.86,-255.26 147.21,-262.59 153.45,-265.76"/>
</g>
<!-- 4 -->
<g id="node5" class="node">
<title>4</title>
<polygon fill="none" stroke="#ffaa11" points="106,-36 70,-36 70,0 106,0 106,-36"/>
<polyline fill="none" stroke="#ffaa11" points="82,-36 70,-24 "/>
<polyline fill="none" stroke="#ffaa11" points="70,-12 82,0 "/>
<polyline fill="none" stroke="#ffaa11" points="94,0 106,-12 "/>
<polyline fill="none" stroke="#ffaa11" points="106,-24 94,-36 "/>
<text text-anchor="middle" x="88" y="-14.3" font-family="Times,serif" font-size="14.00">&gt;</text>
</g>
<!-- 5&#45;&gt;4 -->
<g id="edge6" class="edge">
<title>5&#45;&gt;4</title>
<path fill="none" stroke="black" d="M109.36,-73.06C106.13,-64.88 102.17,-54.86 98.54,-45.67"/>
<polygon fill="black" stroke="black" points="101.71,-44.18 94.78,-36.16 95.2,-46.75 101.71,-44.18"/>
</g>
<!-- 6&#45;&gt;1 -->
<g id="edge7" class="edge">
<title>6&#45;&gt;1</title>
<path fill="none" stroke="black" d="M153.03,-222.04C146.8,-212.53 138.64,-200.09 131.57,-189.3"/>
<polygon fill="black" stroke="black" points="134.36,-187.17 125.95,-180.73 128.51,-191.01 134.36,-187.17"/>
</g>
<!-- 6&#45;&gt;5 -->
<g id="edge8" class="edge">
<title>6&#45;&gt;5</title>
<path fill="none" stroke="black" d="M160.76,-219.3C158.09,-200.55 152.82,-170.47 144,-145.7 140.43,-135.68 135.33,-125.19 130.45,-116.16"/>
<polygon fill="black" stroke="black" points="133.46,-114.37 125.52,-107.35 127.35,-117.79 133.46,-114.37"/>
</g>
<!-- 7&#45;&gt;4 -->
<g id="edge9" class="edge">
<title>7&#45;&gt;4</title>
<path fill="none" stroke="black" d="M63.43,-145.82C68.25,-120.98 77.04,-75.58 82.7,-46.38"/>
<polygon fill="black" stroke="black" points="86.16,-46.9 84.63,-36.42 79.29,-45.57 86.16,-46.9"/>
</g>
<!-- 8 -->
<g id="node9" class="node">
<title>8</title>
<polygon fill="none" stroke="#9212b4" points="226,-329.09 172,-329.09 172,-293.09 226,-293.09 226,-329.09"/>
<text text-anchor="middle" x="199" y="-307.39" font-family="Times,serif" font-size="14.00">414</text>
</g>
<!-- 8&#45;&gt;6 -->
<g id="edge10" class="edge">
<title>8&#45;&gt;6</title>
<path fill="none" stroke="black" d="M190.29,-292.94C185.92,-284.34 180.54,-273.76 175.72,-264.27"/>
<polygon fill="black" stroke="black" points="178.79,-262.59 171.14,-255.26 172.55,-265.76 178.79,-262.59"/>
</g>
</g>
</svg>
