<?xml version="1.0" encoding="UTF-8" standalone="no"?>
<!DOCTYPE svg PUBLIC "-//W3C//DTD SVG 1.1//EN"
 "http://www.w3.org/Graphics/SVG/1.1/DTD/svg11.dtd">
<!-- Generated by graphviz version 2.43.0 (0)
 -->
<!-- Title: %3 Pages: 1 -->
<svg width="188pt" height="131pt"
 viewBox="0.00 0.00 188.35 131.00" xmlns="http://www.w3.org/2000/svg" xmlns:xlink="http://www.w3.org/1999/xlink">
<g id="graph0" class="graph" transform="scale(1 1) rotate(0) translate(4 127)">
<title>%3</title>
<polygon fill="white" stroke="transparent" points="-4,4 -4,-127 184.35,-127 184.35,4 -4,4"/>
<!-- 0 -->
<g id="node1" class="node">
<title>0</title>
<ellipse fill="none" stroke="#ff0000" cx="81.35" cy="-105" rx="27" ry="18"/>
<text text-anchor="middle" x="81.35" y="-101.3" font-family="Times,serif" font-size="14.00">0</text>
</g>
<!-- 2 -->
<g id="node3" class="node">
<title>2</title>
<ellipse fill="none" stroke="black" cx="38.35" cy="-18" rx="38.19" ry="18"/>
<text text-anchor="middle" x="38.35" y="-14.3" font-family="Times,serif" font-size="14.00">James</text>
</g>
<!-- 0&#45;&gt;2 -->
<g id="edge2" class="edge">
<title>0&#45;&gt;2</title>
<path fill="none" stroke="black" d="M64.59,-90.59C58.23,-84.64 51.53,-77.14 47.35,-69 43.74,-61.99 41.56,-53.78 40.24,-46.06"/>
<polygon fill="black" stroke="black" points="43.7,-45.47 38.93,-36 36.76,-46.37 43.7,-45.47"/>
<text text-anchor="middle" x="75.35" y="-57.8" font-family="Times,serif" font-size="14.00">Child of</text>
</g>
<!-- 3 -->
<g id="node4" class="node">
<title>3</title>
<ellipse fill="none" stroke="black" cx="125.35" cy="-18" rx="30.59" ry="18"/>
<text text-anchor="middle" x="125.35" y="-14.3" font-family="Times,serif" font-size="14.00">john</text>
</g>
<!-- 0&#45;&gt;3 -->
<g id="edge1" class="edge">
<title>0&#45;&gt;3</title>
<path fill="none" stroke="black" d="M91.93,-88.26C95.73,-82.34 99.92,-75.47 103.35,-69 107.35,-61.46 111.25,-53.04 114.64,-45.3"/>
<polygon fill="black" stroke="black" points="117.92,-46.53 118.61,-35.96 111.48,-43.79 117.92,-46.53"/>
<text text-anchor="middle" x="138.35" y="-57.8" font-family="Times,serif" font-size="14.00">Child of</text>
</g>
<!-- 1 -->
<g id="node2" class="node">
<title>1</title>
<ellipse fill="none" stroke="#44dd55" cx="153.35" cy="-105" rx="27" ry="18"/>
<text text-anchor="middle" x="153.35" y="-101.3" font-family="Times,serif" font-size="14.00">1</text>
</g>
</g>
</svg>
