<?xml version="1.0" encoding="UTF-8" standalone="no"?>
<!DOCTYPE svg PUBLIC "-//W3C//DTD SVG 1.1//EN"
 "http://www.w3.org/Graphics/SVG/1.1/DTD/svg11.dtd">
<!-- Generated by graphviz version 2.43.0 (0)
 -->
<!-- Title: %3 Pages: 1 -->
<svg width="234pt" height="355pt"
 viewBox="0.00 0.00 234.00 355.09" xmlns="http://www.w3.org/2000/svg" xmlns:xlink="http://www.w3.org/1999/xlink">
<g id="graph0" class="graph" transform="scale(1 1) rotate(0) translate(4 351.09)">
<title>%3</title>
<polygon fill="white" stroke="transparent" points="-4,4 -4,-351.09 230,-351.09 230,4 -4,4"/>
<!-- 0 -->
<g id="node1" class="node">
<title>0</title>
<ellipse fill="none" stroke="#44aa55" cx="110" cy="-105.85" rx="18.7" ry="18.7"/>
<text text-anchor="middle" x="110" y="-102.15" font-family="Times,serif" font-size="14.00">+</text>
</g>
<!-- 6 -->
<g id="node2" class="node">
<title>6</title>
<polygon fill="none" stroke="#ffaa11" points="156,-36 120,-36 120,0 156,0 156,-36"/>
<polyline fill="none" stroke="#ffaa11" points="132,-36 120,-24 "/>
<polyline fill="none" stroke="#ffaa11" points="120,-12 132,0 "/>
<polyline fill="none" stroke="#ffaa11" points="144,0 156,-12 "/>
<polyline fill="none" stroke="#ffaa11" points="156,-24 144,-36 "/>
<text text-anchor="middle" x="138" y="-14.3" font-family="Times,serif" font-size="14.00">&gt;</text>
</g>
<!-- 0&#45;&gt;6 -->
<g id="edge1" class="edge">
<title>0&#45;&gt;6</title>
<path fill="none" stroke="black" d="M115.37,-87.4C118.43,-77.57 122.36,-65.08 126,-54 126.9,-51.25 127.86,-48.39 128.82,-45.54"/>
<polygon fill="black" stroke="black" points="132.14,-46.66 132.05,-36.06 125.51,-44.4 132.14,-46.66"/>
<text text-anchor="middle" x="138.5" y="-57.8" font-family="Times,serif" font-size="14.00">left</text>
</g>
<!-- 1 -->
<g id="node3" class="node">
<title>1</title>
<polygon fill="none" stroke="#9212b4" points="54,-347.09 0,-347.09 0,-311.09 54,-311.09 54,-347.09"/>
<text text-anchor="middle" x="27" y="-325.39" font-family="Times,serif" font-size="14.00">15</text>
</g>
<!-- 8 -->
<g id="node4" class="node">
<title>8</title>
<ellipse fill="none" stroke="#44aa55" cx="63" cy="-255.24" rx="18.7" ry="18.7"/>
<text text-anchor="middle" x="63" y="-251.54" font-family="Times,serif" font-size="14.00">+</text>
</g>
<!-- 1&#45;&gt;8 -->
<g id="edge2" class="edge">
<title>1&#45;&gt;8</title>
<path fill="none" stroke="black" d="M35.53,-311.06C39.9,-302.35 45.3,-291.56 50.16,-281.87"/>
<polygon fill="black" stroke="black" points="53.43,-283.16 54.78,-272.65 47.17,-280.02 53.43,-283.16"/>
</g>
<!-- 8&#45;&gt;0 -->
<g id="edge9" class="edge">
<title>8&#45;&gt;0</title>
<path fill="none" stroke="black" d="M65.2,-236.46C67.87,-217.55 73.15,-186.93 82,-161.7 85.57,-151.51 90.68,-140.83 95.56,-131.63"/>
<polygon fill="black" stroke="black" points="98.74,-133.11 100.48,-122.66 92.6,-129.74 98.74,-133.11"/>
</g>
<!-- 2 -->
<g id="node5" class="node">
<title>2</title>
<ellipse fill="none" stroke="#44aa55" cx="110" cy="-180.54" rx="18.7" ry="18.7"/>
<text text-anchor="middle" x="110" y="-176.84" font-family="Times,serif" font-size="14.00">+</text>
</g>
<!-- 8&#45;&gt;2 -->
<g id="edge10" class="edge">
<title>8&#45;&gt;2</title>
<path fill="none" stroke="black" d="M72.97,-238.82C79.2,-229.19 87.36,-216.57 94.43,-205.63"/>
<polygon fill="black" stroke="black" points="97.56,-207.24 100.05,-196.94 91.68,-203.44 97.56,-207.24"/>
</g>
<!-- 2&#45;&gt;0 -->
<g id="edge3" class="edge">
<title>2&#45;&gt;0</title>
<path fill="none" stroke="black" d="M110,-161.58C110,-153.54 110,-143.87 110,-134.91"/>
<polygon fill="black" stroke="black" points="113.5,-134.86 110,-124.86 106.5,-134.86 113.5,-134.86"/>
</g>
<!-- 3 -->
<g id="node6" class="node">
<title>3</title>
<polygon fill="none" stroke="#9212b4" points="154,-273.24 100,-273.24 100,-237.24 154,-237.24 154,-273.24"/>
<text text-anchor="middle" x="127" y="-251.54" font-family="Times,serif" font-size="14.00">149</text>
</g>
<!-- 3&#45;&gt;2 -->
<g id="edge4" class="edge">
<title>3&#45;&gt;2</title>
<path fill="none" stroke="black" d="M122.97,-237.01C121.01,-228.63 118.6,-218.34 116.4,-208.91"/>
<polygon fill="black" stroke="black" points="119.8,-208.09 114.12,-199.15 112.99,-209.69 119.8,-208.09"/>
</g>
<!-- 5 -->
<g id="node7" class="node">
<title>5</title>
<ellipse fill="none" stroke="#44aa55" cx="166" cy="-180.54" rx="18.7" ry="18.7"/>
<text text-anchor="middle" x="166" y="-176.84" font-family="Times,serif" font-size="14.00">+</text>
</g>
<!-- 3&#45;&gt;5 -->
<g id="edge5" class="edge">
<title>3&#45;&gt;5</title>
<path fill="none" stroke="black" d="M136.24,-237.01C141.09,-227.98 147.12,-216.74 152.48,-206.74"/>
<polygon fill="black" stroke="black" points="155.71,-208.12 157.36,-197.65 149.55,-204.81 155.71,-208.12"/>
</g>
<!-- 5&#45;&gt;6 -->
<g id="edge7" class="edge">
<title>5&#45;&gt;6</title>
<path fill="none" stroke="black" d="M165.18,-161.43C163.77,-136.81 160.08,-91.55 151,-54 150.35,-51.32 149.56,-48.56 148.69,-45.82"/>
<polygon fill="black" stroke="black" points="151.92,-44.47 145.31,-36.19 145.32,-46.79 151.92,-44.47"/>
<text text-anchor="middle" x="181" y="-102.15" font-family="Times,serif" font-size="14.00">right</text>
</g>
<!-- 4 -->
<g id="node8" class="node">
<title>4</title>
<polygon fill="none" stroke="#9212b4" points="126,-347.09 72,-347.09 72,-311.09 126,-311.09 126,-347.09"/>
<text text-anchor="middle" x="99" y="-325.39" font-family="Times,serif" font-size="14.00">414</text>
</g>
<!-- 4&#45;&gt;8 -->
<g id="edge6" class="edge">
<title>4&#45;&gt;8</title>
<path fill="none" stroke="black" d="M90.47,-311.06C86.1,-302.35 80.7,-291.56 75.84,-281.87"/>
<polygon fill="black" stroke="black" points="78.83,-280.02 71.22,-272.65 72.57,-283.16 78.83,-280.02"/>
</g>
<!-- 7 -->
<g id="node9" class="node">
<title>7</title>
<polygon fill="none" stroke="#9212b4" points="226,-273.24 172,-273.24 172,-237.24 226,-237.24 226,-273.24"/>
<text text-anchor="middle" x="199" y="-251.54" font-family="Times,serif" font-size="14.00">3</text>
</g>
<!-- 7&#45;&gt;5 -->
<g id="edge8" class="edge">
<title>7&#45;&gt;5</title>
<path fill="none" stroke="black" d="M191.18,-237.01C187.18,-228.2 182.22,-217.28 177.77,-207.47"/>
<polygon fill="black" stroke="black" points="180.86,-205.81 173.54,-198.15 174.48,-208.7 180.86,-205.81"/>
</g>
</g>
</svg>
